<?xml version="1.0" standalone="no"?>
<!DOCTYPE svg PUBLIC "-//W3C//DTD SVG 20010904//EN"
 "http://www.w3.org/TR/2001/REC-SVG-20010904/DTD/svg10.dtd">
<svg version="1.0" xmlns="http://www.w3.org/2000/svg"
 width="1074.000000pt" height="362.000000pt" viewBox="0 0 1074.000000 362.000000"
 preserveAspectRatio="xMidYMid meet">

<g transform="translate(0.000000,362.000000) scale(0.100000,-0.100000)"
fill="#000000" stroke="none">
<path d="M323 3415 c0 -33 2 -45 4 -27 2 18 2 45 0 60 -2 15 -4 0 -4 -33z"/>
<path d="M3053 3415 c0 -33 2 -45 4 -27 2 18 2 45 0 60 -2 15 -4 0 -4 -33z"/>
<path d="M3431 3453 c-5 -10 -5 -36 -1 -58 l8 -40 2 35 c2 19 3 42 2 50 0 8 5
18 11 22 9 6 9 8 0 8 -7 0 -16 -8 -22 -17z"/>
<path d="M110 3410 c0 -45 2 -50 23 -50 35 0 50 16 50 50 0 34 -15 50 -50 50
-21 0 -23 -5 -23 -50z m55 0 c0 -25 -5 -36 -17 -38 -15 -3 -18 4 -18 38 0 34
3 41 18 38 12 -2 17 -13 17 -38z"/>
<path d="M467 3413 c-9 -25 -15 -48 -12 -51 2 -3 7 3 11 12 3 9 14 16 24 16
10 0 21 -7 24 -16 4 -9 9 -15 11 -12 6 6 -27 98 -35 98 -3 0 -13 -21 -23 -47z
m33 2 c0 -8 -4 -15 -10 -15 -5 0 -10 7 -10 15 0 8 5 15 10 15 6 0 10 -7 10
-15z"/>
<path d="M551 3446 c-22 -26 -9 -68 26 -87 l32 -18 6 33 c11 56 3 81 -26 84
-14 2 -31 -4 -38 -12z m57 -34 c2 -22 -2 -34 -12 -38 -34 -13 -61 37 -34 64
21 21 43 9 46 -26z"/>
<path d="M645 3410 c0 -27 5 -50 10 -50 6 0 10 23 10 50 0 28 -4 50 -10 50 -5
0 -10 -22 -10 -50z"/>
<path d="M2896 3440 c4 -14 12 -38 19 -55 l13 -30 11 28 c6 15 13 40 16 55 5
27 1 21 -18 -28 -9 -25 -9 -25 -28 15 -10 22 -16 29 -13 15z"/>
<path d="M215 3430 c-3 -6 4 -10 17 -10 22 -1 22 -2 -5 -16 -34 -18 -31 -38 6
-42 24 -3 27 0 27 25 0 40 -29 68 -45 43z m27 -52 c-9 -9 -15 -9 -24 0 -9 9
-7 12 12 12 19 0 21 -3 12 -12z"/>
<path d="M2985 3431 c-3 -5 3 -12 12 -14 15 -4 14 -6 -5 -12 -31 -10 -24 -39
11 -43 22 -3 27 1 27 18 0 41 -30 75 -45 51z m25 -51 c0 -5 -7 -10 -15 -10 -8
0 -15 5 -15 10 0 6 7 10 15 10 8 0 15 -4 15 -10z"/>
<path d="M3170 3420 c-15 -28 4 -60 33 -59 22 2 22 2 1 6 -16 3 -21 11 -20 29
0 13 7 24 14 24 7 0 10 -4 7 -10 -3 -5 -1 -10 4 -10 17 0 13 27 -5 34 -22 8
-22 8 -34 -14z"/>
<path d="M3243 3424 c-4 -10 0 -20 10 -26 22 -12 22 -25 0 -31 -14 -4 -13 -5
4 -6 33 -2 39 19 12 40 -20 15 -21 19 -6 19 9 0 17 5 17 10 0 16 -30 11 -37
-6z"/>
<path d="M3350 3426 c-6 -8 -10 -25 -8 -38 2 -17 10 -23 28 -23 18 0 26 6 28
23 3 22 -13 52 -28 52 -4 0 -13 -7 -20 -14z m38 -28 c-2 -13 -10 -23 -18 -23
-8 0 -16 10 -18 23 -3 17 2 22 18 22 16 0 21 -5 18 -22z"/>
<path d="M283 3395 c0 -22 2 -30 4 -17 2 12 2 30 0 40 -3 9 -5 -1 -4 -23z"/>
<path d="M354 3417 c17 -54 18 -70 5 -79 -12 -8 -11 -9 1 -5 16 4 55 97 41 97
-5 0 -12 -10 -15 -22 l-6 -23 -16 25 c-9 14 -13 17 -10 7z"/>
<path d="M3080 3411 c0 -35 12 -51 36 -51 21 0 24 4 22 38 -1 36 -1 36 -5 5
-6 -43 -33 -45 -33 -3 0 17 -4 30 -10 30 -5 0 -10 -9 -10 -19z"/>
<path d="M283 3215 c0 -33 2 -45 4 -27 2 18 2 45 0 60 -2 15 -4 0 -4 -33z"/>
<path d="M1403 3215 c0 -33 2 -45 4 -27 2 18 2 45 0 60 -2 15 -4 0 -4 -33z"/>
<path d="M1622 3249 c-7 -18 -4 -94 3 -87 2 2 5 21 7 43 2 22 7 46 12 53 4 7
2 12 -4 12 -6 0 -14 -9 -18 -21z"/>
<path d="M3077 3250 c-3 -11 -9 -20 -14 -19 -27 5 -34 -3 -31 -33 2 -28 8 -34
31 -36 27 -3 27 -2 27 52 0 59 -4 70 -13 36z m-2 -55 c0 -11 -8 -21 -17 -23
-14 -3 -18 3 -18 23 0 20 4 26 18 23 9 -2 17 -12 17 -23z"/>
<path d="M4731 3253 c-5 -10 -5 -36 -1 -58 l8 -40 2 35 c2 19 3 42 2 50 0 8 5
18 11 22 9 6 9 8 0 8 -7 0 -16 -8 -22 -17z"/>
<path d="M5283 3215 c0 -33 2 -45 4 -27 2 18 2 45 0 60 -2 15 -4 0 -4 -33z"/>
<path d="M122 3248 c-15 -15 -15 -61 0 -76 7 -7 23 -12 37 -11 l26 1 -24 7
c-53 14 -53 68 0 82 l24 7 -25 1 c-15 1 -31 -4 -38 -11z"/>
<path d="M1122 3213 c-2 -52 -1 -53 26 -52 22 1 23 2 5 6 -18 4 -23 12 -26 51
l-3 47 -2 -52z"/>
<path d="M1712 3248 c-7 -7 -12 -24 -12 -38 0 -32 17 -50 45 -49 17 1 16 2 -5
8 -46 13 -36 74 13 84 19 4 19 4 -3 6 -15 0 -31 -4 -38 -11z"/>
<path d="M2898 3248 c7 -7 12 -24 12 -38 0 -14 -5 -31 -12 -38 -9 -9 -8 -12 8
-12 16 0 19 7 19 50 0 43 -3 50 -19 50 -16 0 -17 -3 -8 -12z"/>
<path d="M3890 3210 c0 -47 2 -50 25 -50 17 0 29 8 37 25 16 36 -3 75 -37 75
-23 0 -25 -3 -25 -50z m54 18 c13 -21 -2 -51 -28 -56 -13 -3 -16 5 -16 38 0
33 3 41 16 38 9 -2 22 -11 28 -20z"/>
<path d="M4824 3244 c-4 -10 -13 -34 -20 -51 -7 -19 -9 -33 -3 -33 5 0 9 7 9
15 0 9 9 15 25 15 16 0 25 -6 25 -15 0 -8 4 -15 9 -15 9 0 -18 83 -32 96 -3 4
-10 -2 -13 -12z m23 -40 c-9 -9 -28 6 -21 18 4 6 10 6 17 -1 6 -6 8 -13 4 -17z"/>
<path d="M5020 3236 c-13 -35 -2 -64 33 -81 37 -18 38 -18 31 -1 -3 8 -1 17 5
21 15 9 14 58 -1 73 -21 21 -58 14 -68 -12z m64 -8 c14 -23 -3 -53 -30 -53
-20 0 -31 33 -20 61 7 19 35 14 50 -8z"/>
<path d="M4357 3243 c-2 -5 -2 -25 0 -45 4 -27 10 -38 22 -38 13 0 13 2 2 9
-9 6 -12 19 -8 40 6 28 -6 52 -16 34z"/>
<path d="M200 3225 c-7 -9 -10 -25 -6 -41 10 -37 50 -30 54 10 5 40 -25 59
-48 31z m40 -30 c0 -25 -23 -35 -35 -15 -10 16 2 40 20 40 9 0 15 -9 15 -25z"/>
<path d="M320 3226 c-6 -8 -10 -25 -8 -38 2 -17 10 -23 28 -23 18 0 26 6 28
23 3 22 -13 52 -28 52 -4 0 -13 -7 -20 -14z m38 -28 c-2 -13 -10 -23 -18 -23
-8 0 -16 10 -18 23 -3 17 2 22 18 22 16 0 21 -5 18 -22z"/>
<path d="M413 3233 c-8 -3 -12 -20 -12 -41 2 -34 2 -35 6 -7 3 16 10 33 16 37
14 9 6 17 -10 11z"/>
<path d="M1190 3225 c-7 -8 -10 -25 -6 -40 5 -19 12 -25 34 -24 20 1 22 2 7 6
-34 8 -39 22 -11 29 29 7 32 14 14 32 -16 16 -23 15 -38 -3z m37 -11 c-3 -3
-12 -4 -19 -1 -8 3 -5 6 6 6 11 1 17 -2 13 -5z"/>
<path d="M1330 3225 c-7 -8 -10 -25 -6 -40 5 -19 12 -25 34 -24 20 1 22 2 7 6
-34 8 -39 22 -11 29 29 7 32 14 14 32 -16 16 -23 15 -38 -3z m37 -11 c-3 -3
-12 -4 -19 -1 -8 3 -5 6 6 6 11 1 17 -2 13 -5z"/>
<path d="M1440 3226 c-9 -12 -7 -17 9 -28 27 -17 27 -28 -1 -29 -19 -1 -20 -2
-4 -6 10 -3 23 0 30 7 8 9 5 16 -13 31 -23 19 -23 19 -2 19 12 0 19 5 16 10
-9 14 -21 12 -35 -4z"/>
<path d="M1545 3224 c-18 -18 -18 -20 -5 -45 20 -36 68 -10 55 30 -8 26 -31
33 -50 15z m39 -13 c9 -14 -4 -41 -20 -41 -8 0 -14 10 -14 25 0 25 23 35 34
16z"/>
<path d="M1790 3225 c-7 -9 -10 -25 -6 -41 10 -37 50 -30 54 10 5 40 -25 59
-48 31z m40 -30 c0 -25 -23 -35 -35 -15 -10 16 2 40 20 40 9 0 15 -9 15 -25z"/>
<path d="M1883 3233 c-8 -3 -12 -20 -11 -41 l1 -37 4 33 c3 18 10 32 18 32 8
0 16 -14 18 -32 4 -28 4 -26 3 6 -1 39 -9 49 -33 39z"/>
<path d="M1956 3224 c-9 -8 -16 -21 -16 -28 0 -19 27 -39 42 -33 8 4 7 6 -4 6
-23 1 -25 51 -3 51 8 0 15 5 15 10 0 15 -16 12 -34 -6z"/>
<path d="M2020 3226 c-20 -25 -8 -61 20 -63 21 -2 22 -1 6 5 -23 10 -30 52 -9
52 8 0 11 -4 8 -10 -3 -5 1 -10 9 -10 19 0 21 11 4 28 -16 16 -23 15 -38 -2z"/>
<path d="M2103 3233 c-8 -3 -12 -20 -12 -41 2 -34 2 -34 6 -7 3 16 12 35 21
42 17 12 8 16 -15 6z"/>
<path d="M2158 3232 c-14 -2 -18 -13 -17 -40 1 -36 2 -36 8 -7 9 43 39 45 44
3 l4 -33 1 36 c2 38 -9 49 -40 41z"/>
<path d="M2963 3233 c-8 -3 -12 -20 -11 -41 l1 -37 4 33 c6 42 33 44 33 2 0
-16 5 -30 10 -30 13 0 13 36 0 61 -11 19 -16 21 -37 12z"/>
<path d="M3120 3226 c-20 -25 -8 -61 20 -63 21 -2 22 -1 6 5 -23 10 -30 52 -9
52 8 0 11 -4 8 -10 -3 -5 1 -10 9 -10 19 0 21 11 4 28 -16 16 -23 15 -38 -2z"/>
<path d="M3990 3226 c-20 -25 -8 -61 20 -63 21 -2 22 -1 6 5 -23 10 -30 52 -9
52 8 0 11 -4 8 -10 -3 -5 1 -10 9 -10 19 0 21 11 4 28 -16 16 -23 15 -38 -2z"/>
<path d="M4060 3226 c-9 -12 -7 -17 9 -28 27 -17 27 -28 -1 -29 -19 -1 -20 -2
-4 -6 10 -3 23 0 30 7 8 9 5 16 -13 31 -23 19 -23 19 -2 19 12 0 19 5 16 10
-9 14 -21 12 -35 -4z"/>
<path d="M4132 3231 c-8 -5 -12 -21 -10 -37 2 -23 9 -30 28 -31 25 -3 25 -3 3
7 -26 11 -32 50 -8 50 8 0 15 5 15 10 0 12 -10 13 -28 1z"/>
<path d="M4203 3233 c-8 -3 -12 -20 -12 -41 2 -34 2 -35 6 -7 3 16 10 33 16
37 14 9 6 17 -10 11z"/>
<path d="M4293 3233 c-8 -3 -13 -23 -12 -56 1 -29 3 -44 6 -34 2 9 13 17 24
17 23 0 36 44 19 65 -13 16 -17 17 -37 8z m32 -38 c0 -11 -8 -21 -17 -23 -14
-3 -18 3 -18 23 0 20 4 26 18 23 9 -2 17 -12 17 -23z"/>
<path d="M4450 3226 c-6 -8 -10 -25 -8 -38 2 -17 10 -23 28 -23 18 0 26 6 28
23 3 22 -13 52 -28 52 -4 0 -13 -7 -20 -14z m38 -28 c-2 -13 -10 -23 -18 -23
-8 0 -16 10 -18 23 -3 17 2 22 18 22 16 0 21 -5 18 -22z"/>
<path d="M4538 3232 c-14 -2 -18 -13 -17 -40 1 -36 2 -36 8 -7 9 43 39 45 44
3 l4 -33 1 36 c2 38 -9 49 -40 41z"/>
<path d="M4650 3226 c-6 -8 -10 -25 -8 -38 2 -17 10 -23 28 -23 18 0 26 6 28
23 3 22 -13 52 -28 52 -4 0 -13 -7 -20 -14z m38 -28 c-2 -13 -10 -23 -18 -23
-8 0 -16 10 -18 23 -3 17 2 22 18 22 16 0 21 -5 18 -22z"/>
<path d="M4943 3233 c-8 -3 -12 -20 -12 -41 2 -34 2 -34 6 -7 3 16 12 35 21
42 17 12 8 16 -15 6z"/>
<path d="M5215 3231 c-3 -5 3 -12 12 -14 15 -4 14 -6 -5 -12 -31 -10 -24 -39
11 -43 22 -3 27 1 27 18 0 41 -30 75 -45 51z m25 -51 c0 -5 -7 -10 -15 -10 -8
0 -15 5 -15 10 0 6 7 10 15 10 8 0 15 -4 15 -10z"/>
<path d="M5352 3203 c2 -22 9 -38 18 -41 12 -4 13 -2 3 9 -15 16 -17 49 -3 49
6 0 10 5 10 10 0 6 -7 10 -16 10 -11 0 -14 -9 -12 -37z"/>
<path d="M1263 3195 c6 -19 14 -35 18 -35 8 0 31 61 25 67 -2 3 -7 -5 -11 -16
-7 -24 -25 -28 -25 -7 0 8 -4 17 -9 20 -5 4 -4 -10 2 -29z"/>
<path d="M3195 3212 c3 -7 0 -23 -7 -35 -10 -20 -10 -21 5 -8 14 11 20 11 34
0 15 -13 15 -12 5 8 -7 12 -10 28 -7 35 4 9 -2 14 -15 14 -13 0 -19 -5 -15
-14z"/>
<path d="M4243 3195 c0 -22 2 -30 4 -17 2 12 2 30 0 40 -3 9 -5 -1 -4 -23z"/>
<path d="M4413 3195 c0 -22 2 -30 4 -17 2 12 2 30 0 40 -3 9 -5 -1 -4 -23z"/>
<path d="M4893 3195 c0 -22 2 -30 4 -17 2 12 2 30 0 40 -3 9 -5 -1 -4 -23z"/>
<path d="M5123 3200 c2 -30 6 -35 30 -38 25 -3 27 -1 26 35 -1 36 -2 37 -8 8
-3 -17 -13 -30 -21 -30 -8 0 -18 13 -22 30 -6 29 -6 29 -5 -5z"/>
<path d="M5323 3195 c0 -22 2 -30 4 -17 2 12 2 30 0 40 -3 9 -5 -1 -4 -23z"/>
<path d="M5405 3194 c15 -36 15 -39 -1 -51 -16 -11 -16 -13 -2 -13 10 0 22 17
32 47 9 25 14 48 12 50 -2 3 -7 -5 -11 -16 -7 -24 -25 -28 -25 -7 0 8 -5 18
-11 21 -5 4 -3 -10 6 -31z"/>
<path d="M2050 2875 c0 -8 -7 -15 -15 -15 -19 0 -38 -36 -30 -60 4 -14 15 -20
36 -20 29 0 29 1 29 55 0 30 -4 55 -10 55 -5 0 -10 -7 -10 -15z m0 -61 c0 -31
-23 -28 -28 4 -2 15 2 22 12 22 11 0 16 -9 16 -26z"/>
<path d="M4343 2835 c0 -33 2 -45 4 -27 2 18 2 45 0 60 -2 15 -4 0 -4 -33z"/>
<path d="M4984 2868 c-11 -28 -7 -88 7 -88 8 0 13 36 12 78 -1 6 3 12 8 12 5
0 9 5 9 10 0 19 -27 10 -36 -12z"/>
<path d="M5690 2877 c0 -7 -10 -17 -22 -22 -17 -7 -23 -18 -23 -40 0 -27 4
-30 33 -33 l32 -3 0 55 c0 31 -4 56 -10 56 -5 0 -10 -6 -10 -13z m-2 -59 c-5
-32 -28 -35 -28 -4 0 17 5 26 16 26 10 0 14 -7 12 -22z"/>
<path d="M6130 2835 c0 -30 5 -55 10 -55 6 0 10 25 10 55 0 30 -4 55 -10 55
-5 0 -10 -25 -10 -55z"/>
<path d="M6173 2835 c0 -33 2 -45 4 -27 2 18 2 45 0 60 -2 15 -4 0 -4 -33z"/>
<path d="M6973 2835 c0 -33 2 -45 4 -27 2 18 2 45 0 60 -2 15 -4 0 -4 -33z"/>
<path d="M7143 2835 c0 -33 2 -45 4 -27 2 18 2 45 0 60 -2 15 -4 0 -4 -33z"/>
<path d="M7810 2835 c0 -30 5 -55 10 -55 6 0 10 8 10 18 1 16 1 16 11 0 14
-25 32 -23 19 2 -8 14 -8 26 0 40 12 22 1 27 -18 8 -9 -9 -12 -6 -12 15 0 15
-4 27 -10 27 -5 0 -10 -25 -10 -55z"/>
<path d="M342 2868 c-7 -7 -12 -24 -12 -38 0 -34 17 -50 52 -50 23 0 28 4 28
25 0 19 -5 25 -22 24 -13 0 -17 -3 -10 -6 19 -7 15 -35 -5 -31 -12 2 -19 14
-21 35 -3 29 0 33 30 42 l33 9 -30 1 c-17 1 -36 -4 -43 -11z"/>
<path d="M1762 2868 c-7 -7 -12 -24 -12 -38 0 -34 17 -50 52 -50 23 0 28 4 28
25 0 19 -5 25 -22 24 -13 0 -17 -3 -10 -6 17 -7 15 -33 -3 -33 -8 0 -19 9 -25
20 -15 28 5 64 31 57 10 -3 22 -1 25 4 8 14 -50 11 -64 -3z"/>
<path d="M3091 2858 c-13 -36 1 -73 30 -73 22 0 24 4 24 45 0 39 -3 45 -23 48
-16 2 -25 -3 -31 -20z m44 -8 c8 -26 -3 -62 -18 -57 -7 2 -13 14 -15 26 -7 45
20 71 33 31z"/>
<path d="M3370 2856 c0 -15 7 -26 20 -29 27 -7 25 -25 -2 -37 -21 -9 -20 -9 7
-7 41 3 48 42 11 57 -32 12 -33 18 -3 30 21 8 21 9 -5 9 -23 1 -28 -3 -28 -23z"/>
<path d="M3444 2856 c-10 -42 3 -78 28 -74 31 4 44 31 32 65 -13 38 -51 44
-60 9z m44 -30 c-2 -15 -7 -28 -13 -29 -12 -2 -19 38 -10 60 9 25 27 1 23 -31z"/>
<path d="M3905 2871 c-14 -24 -33 -91 -26 -91 5 0 11 7 15 15 3 8 12 15 21 15
9 0 18 -7 21 -15 4 -8 10 -15 14 -15 10 0 -18 88 -30 95 -5 3 -11 1 -15 -4z
m12 -43 c-3 -8 -6 -5 -6 6 -1 11 2 17 5 13 3 -3 4 -12 1 -19z"/>
<path d="M3204 2856 c-11 -30 1 -71 21 -73 11 -2 14 0 8 3 -15 7 -17 54 -3 54
16 0 12 17 -5 24 -9 3 -18 -1 -21 -8z"/>
<path d="M4406 2861 c-2 -3 -1 -23 1 -43 4 -26 10 -38 21 -38 12 0 13 3 4 12
-16 16 -15 48 1 48 14 0 37 -40 37 -65 0 -8 -4 -15 -10 -15 -5 0 -10 -4 -10
-10 0 -5 7 -7 14 -4 17 6 52 102 42 112 -4 3 -9 -4 -13 -16 -7 -27 -20 -28
-28 -3 -5 18 -52 35 -59 22z"/>
<path d="M4833 2859 c-17 -17 0 -74 22 -76 11 -2 14 0 8 3 -15 7 -17 54 -3 54
15 0 12 17 -4 23 -7 3 -18 1 -23 -4z"/>
<path d="M5167 2862 c-2 -4 -2 -24 0 -44 4 -27 10 -38 22 -37 10 0 11 2 4 6
-15 6 -18 53 -3 53 6 0 10 4 10 9 0 11 -28 22 -33 13z"/>
<path d="M6287 2862 c-2 -4 -2 -24 0 -44 4 -27 10 -38 22 -37 10 0 11 2 4 6
-15 6 -18 53 -3 53 6 0 10 4 10 9 0 11 -28 22 -33 13z"/>
<path d="M7038 2858 c-9 -27 7 -73 27 -76 15 -2 16 -1 7 6 -8 5 -12 23 -10 42
3 32 -15 54 -24 28z"/>
<path d="M7088 2858 c-9 -27 7 -73 27 -76 15 -2 16 -1 7 6 -8 5 -12 23 -10 42
3 32 -15 54 -24 28z"/>
<path d="M430 2818 c0 -21 5 -38 10 -38 6 0 10 14 10 30 0 17 5 30 10 30 6 0
10 4 10 9 0 6 -9 9 -20 8 -16 -1 -20 -8 -20 -39z"/>
<path d="M490 2846 c-7 -9 -10 -26 -6 -41 5 -19 13 -25 34 -24 l27 0 -25 11
-25 11 23 5 c17 2 22 9 20 25 -4 27 -30 33 -48 13z m37 -12 c-3 -3 -12 -4 -19
-1 -8 3 -5 6 6 6 11 1 17 -2 13 -5z"/>
<path d="M572 2851 c-8 -5 -12 -21 -10 -37 2 -24 8 -29 33 -31 18 -1 22 1 10
4 -34 9 -41 23 -12 23 29 0 35 18 15 38 -14 14 -19 15 -36 3z"/>
<path d="M642 2816 c1 -37 2 -38 5 -8 6 42 33 44 33 2 0 -16 5 -30 10 -30 14
0 12 56 -2 67 -7 6 -21 10 -30 10 -15 0 -18 -8 -16 -41z"/>
<path d="M1848 2835 c-14 -30 5 -57 36 -53 39 6 29 78 -10 78 -8 0 -19 -11
-26 -25z m49 -10 c5 -16 -14 -38 -26 -31 -18 12 -13 48 6 44 9 -2 18 -7 20
-13z"/>
<path d="M1928 2835 c-14 -30 5 -57 36 -53 39 6 29 78 -10 78 -8 0 -19 -11
-26 -25z m49 -10 c5 -16 -14 -38 -26 -31 -18 12 -13 48 6 44 9 -2 18 -7 20
-13z"/>
<path d="M3262 2851 c-8 -5 -12 -21 -10 -37 2 -23 8 -29 28 -29 20 0 26 6 28
29 3 25 -10 46 -28 46 -3 0 -11 -4 -18 -9z m35 -27 c8 -21 -13 -42 -28 -27
-13 13 -5 43 11 43 6 0 13 -7 17 -16z"/>
<path d="M3973 2820 c0 -25 2 -35 4 -22 2 12 2 32 0 45 -2 12 -4 2 -4 -23z"/>
<path d="M4011 2815 c2 -31 3 -34 6 -12 3 16 11 31 19 34 21 8 17 22 -6 20
-17 -1 -20 -8 -19 -42z"/>
<path d="M4100 2840 c-15 -28 -3 -60 21 -60 10 0 19 -6 19 -14 0 -8 5 -18 10
-21 6 -4 10 17 10 54 0 58 -1 61 -25 61 -14 0 -29 -8 -35 -20z m40 -26 c0 -31
-23 -28 -28 4 -2 15 2 22 12 22 11 0 16 -9 16 -26z"/>
<path d="M4181 2823 c-1 -41 0 -43 29 -43 28 0 30 2 30 41 0 24 -4 38 -10 34
-5 -3 -10 -20 -10 -36 0 -42 -23 -33 -31 12 -6 34 -6 34 -8 -8z"/>
<path d="M4265 2850 c-3 -6 4 -10 17 -11 l23 0 -22 -11 c-35 -17 -30 -48 7
-48 24 0 30 4 30 21 0 44 -37 77 -55 49z m30 -50 c-3 -5 -10 -10 -16 -10 -5 0
-9 5 -9 10 0 6 7 10 16 10 8 0 12 -4 9 -10z"/>
<path d="M4377 2853 c-11 -10 -8 -73 3 -73 6 0 10 18 10 40 0 41 -2 45 -13 33z"/>
<path d="M4560 2821 c0 -23 5 -41 10 -41 6 0 10 15 10 34 0 19 -4 38 -10 41
-6 4 -10 -10 -10 -34z"/>
<path d="M4600 2850 c-13 -9 -12 -13 8 -29 12 -11 22 -22 22 -24 0 -3 -10 -8
-22 -10 -20 -4 -20 -4 4 -6 37 -2 46 18 17 40 -20 15 -21 19 -6 19 9 0 17 5
17 10 0 13 -21 13 -40 0z"/>
<path d="M4693 2844 c-4 -10 0 -20 10 -26 22 -12 22 -25 0 -31 -11 -3 -7 -5
10 -6 32 -1 37 24 10 45 -17 13 -17 13 0 14 24 0 21 20 -3 20 -11 0 -23 -7
-27 -16z"/>
<path d="M4765 2850 c-3 -6 4 -10 17 -11 l23 0 -22 -11 c-35 -17 -30 -48 7
-48 24 0 30 4 30 21 0 44 -37 77 -55 49z m30 -50 c-3 -5 -10 -10 -16 -10 -5 0
-9 5 -9 10 0 6 7 10 16 10 8 0 12 -4 9 -10z"/>
<path d="M4880 2821 c0 -23 5 -41 10 -41 6 0 10 15 10 34 0 19 -4 38 -10 41
-6 4 -10 -10 -10 -34z"/>
<path d="M4920 2850 c-13 -9 -12 -13 8 -29 12 -11 22 -22 22 -24 0 -3 -10 -8
-22 -10 -20 -4 -20 -4 4 -6 37 -2 46 18 17 40 -20 15 -21 19 -6 19 9 0 17 5
17 10 0 13 -21 13 -40 0z"/>
<path d="M5035 2851 c-4 -7 3 -11 17 -11 l23 0 -25 -13 c-34 -17 -32 -41 3
-45 27 -3 28 -2 25 35 -3 38 -28 57 -43 34z m30 -51 c-3 -5 -10 -10 -16 -10
-5 0 -9 5 -9 10 0 6 7 10 16 10 8 0 12 -4 9 -10z"/>
<path d="M5112 2851 c-8 -5 -12 -21 -10 -37 2 -23 9 -30 28 -31 25 -3 25 -3 3
7 -28 12 -30 40 -3 47 11 3 20 9 20 14 0 11 -21 11 -38 0z"/>
<path d="M5220 2846 c-20 -25 -8 -61 22 -64 31 -4 46 25 28 58 -13 24 -33 26
-50 6z m38 -28 c-5 -32 -28 -35 -28 -4 0 17 5 26 16 26 10 0 14 -7 12 -22z"/>
<path d="M5308 2853 c-13 -3 -18 -15 -18 -39 0 -19 5 -34 10 -34 6 0 10 13 10
29 0 17 6 31 15 35 15 5 19 -1 40 -61 2 -7 -3 -16 -12 -21 -9 -6 -12 -12 -5
-16 13 -8 29 13 47 64 17 50 13 64 -7 25 l-14 -26 -12 25 c-11 26 -19 28 -54
19z"/>
<path d="M5495 2850 c-3 -6 4 -10 17 -11 l23 0 -22 -11 c-35 -17 -30 -48 7
-48 24 0 30 4 30 21 0 44 -37 77 -55 49z m30 -50 c-3 -5 -10 -10 -16 -10 -5 0
-9 5 -9 10 0 6 7 10 16 10 8 0 12 -4 9 -10z"/>
<path d="M5567 2853 c-11 -10 -8 -73 3 -73 6 0 10 14 10 30 0 20 5 30 15 30
10 0 15 -10 15 -30 0 -16 5 -30 10 -30 13 0 13 36 0 61 -10 19 -40 26 -53 12z"/>
<path d="M5770 2851 c0 -6 8 -11 18 -12 13 0 12 -3 -5 -11 -35 -17 -30 -48 8
-48 29 0 30 2 27 38 -2 30 -7 38 -25 40 -13 2 -23 -1 -23 -7z m30 -51 c0 -5
-4 -10 -10 -10 -5 0 -10 5 -10 10 0 6 5 10 10 10 6 0 10 -4 10 -10z"/>
<path d="M5840 2821 c0 -23 5 -41 10 -41 6 0 10 15 10 34 0 19 -4 38 -10 41
-6 4 -10 -10 -10 -34z"/>
<path d="M5881 2815 c2 -31 3 -34 6 -12 3 16 11 31 19 34 21 8 17 22 -6 20
-17 -1 -20 -8 -19 -42z"/>
<path d="M5971 2796 c1 -34 4 -51 6 -39 3 13 13 23 26 25 18 2 22 10 22 38 0
31 -3 35 -27 36 -28 1 -28 0 -27 -60z m44 19 c0 -10 -5 -20 -11 -22 -13 -4
-27 24 -18 38 9 15 29 4 29 -16z"/>
<path d="M6062 2851 c-8 -5 -12 -21 -10 -37 2 -23 8 -29 28 -29 20 0 26 6 28
29 3 25 -10 46 -28 46 -3 0 -11 -4 -18 -9z m35 -27 c8 -21 -13 -42 -28 -27
-13 13 -5 43 11 43 6 0 13 -7 17 -16z"/>
<path d="M6202 2823 c3 -33 7 -38 31 -41 26 -3 27 -2 26 40 -2 42 -2 42 -8 9
-8 -48 -31 -53 -31 -7 0 20 -5 36 -11 36 -6 0 -9 -16 -7 -37z"/>
<path d="M6337 2853 c-11 -10 -8 -73 3 -73 6 0 10 18 10 40 0 41 -2 45 -13 33z"/>
<path d="M6368 2835 c-14 -30 5 -57 36 -53 39 6 29 78 -10 78 -8 0 -19 -11
-26 -25z m49 -10 c5 -16 -14 -38 -26 -31 -18 12 -13 48 6 44 9 -2 18 -7 20
-13z"/>
<path d="M6450 2819 c0 -22 5 -39 10 -39 6 0 10 14 10 30 0 42 27 40 33 -2 4
-27 4 -25 3 7 -1 36 -3 40 -28 41 -26 1 -28 -2 -28 -37z"/>
<path d="M6571 2796 c1 -34 4 -51 6 -39 3 13 13 23 26 25 18 2 22 10 22 38 0
31 -3 35 -27 36 -28 1 -28 0 -27 -60z m44 19 c0 -10 -5 -20 -11 -22 -13 -4
-27 24 -18 38 9 15 29 4 29 -16z"/>
<path d="M6662 2851 c-8 -5 -12 -21 -10 -37 2 -23 8 -29 28 -29 20 0 26 6 28
29 3 25 -10 46 -28 46 -3 0 -11 -4 -18 -9z m35 -27 c8 -21 -13 -42 -28 -27
-13 13 -5 43 11 43 6 0 13 -7 17 -16z"/>
<path d="M6733 2844 c-4 -10 1 -22 10 -29 23 -16 21 -23 -5 -28 -20 -4 -20 -4
4 -6 37 -2 46 18 18 41 l-22 18 21 0 c12 0 19 5 16 10 -10 16 -35 12 -42 -6z"/>
<path d="M6800 2846 c-7 -9 -10 -26 -6 -41 5 -19 13 -25 34 -24 l27 0 -25 11
-25 11 23 5 c17 2 22 9 20 25 -4 27 -30 33 -48 13z m37 -12 c-3 -3 -12 -4 -19
-1 -8 3 -5 6 6 6 11 1 17 -2 13 -5z"/>
<path d="M6873 2844 c-4 -10 1 -22 10 -29 23 -16 21 -23 -5 -28 -20 -4 -20 -4
4 -6 37 -2 46 18 18 41 l-22 18 21 0 c12 0 19 5 16 10 -10 16 -35 12 -42 -6z"/>
<path d="M7013 2820 c0 -25 2 -35 4 -22 2 12 2 32 0 45 -2 12 -4 2 -4 -23z"/>
<path d="M7180 2846 c-6 -8 -10 -25 -8 -38 2 -18 10 -23 33 -25 20 -1 23 0 8
4 -28 6 -30 23 -3 23 24 0 28 35 4 44 -21 8 -20 8 -34 -8z"/>
<path d="M7290 2845 c-7 -9 -10 -25 -6 -41 5 -20 12 -25 34 -22 19 2 28 9 30
26 6 43 -33 68 -58 37z m40 -31 c0 -31 -23 -28 -28 4 -2 15 2 22 12 22 11 0
16 -9 16 -26z"/>
<path d="M7371 2815 c2 -31 3 -34 6 -12 3 16 11 31 19 34 21 8 17 22 -6 20
-17 -1 -20 -8 -19 -42z"/>
<path d="M7461 2816 c1 -37 2 -38 8 -12 9 41 31 46 31 7 0 -17 5 -31 11 -31 6
0 9 16 7 38 -3 33 -6 37 -30 38 -26 1 -28 -1 -27 -40z"/>
<path d="M7552 2851 c-8 -5 -12 -21 -10 -37 2 -23 8 -29 28 -29 20 0 26 6 28
29 3 25 -10 46 -28 46 -3 0 -11 -4 -18 -9z m35 -27 c8 -21 -13 -42 -28 -27
-13 13 -5 43 11 43 6 0 13 -7 17 -16z"/>
<path d="M7661 2815 c2 -31 3 -34 6 -12 3 16 11 31 19 34 21 8 17 22 -6 20
-17 -1 -20 -8 -19 -42z"/>
<path d="M7717 2853 c-11 -10 -8 -73 3 -73 6 0 10 18 10 40 0 41 -2 45 -13 33z"/>
<path d="M7753 2844 c-4 -10 1 -22 10 -29 23 -16 21 -23 -5 -28 -20 -4 -20 -4
4 -6 37 -2 46 18 18 41 l-22 18 21 0 c12 0 19 5 16 10 -10 16 -35 12 -42 -6z"/>
<path d="M5417 2794 c-4 -4 -7 -14 -7 -23 0 -11 3 -12 11 -4 6 6 10 16 7 23
-2 6 -7 8 -11 4z"/>
<path d="M7880 2790 c0 -5 5 -10 10 -10 6 0 10 5 10 10 0 6 -4 10 -10 10 -5 0
-10 -4 -10 -10z"/>
<path d="M473 2465 c0 -33 2 -45 4 -27 2 18 2 45 0 60 -2 15 -4 0 -4 -33z"/>
<path d="M513 2465 c0 -33 2 -45 4 -27 2 18 2 45 0 60 -2 15 -4 0 -4 -33z"/>
<path d="M1867 2500 c-3 -11 -9 -20 -14 -19 -27 5 -34 -3 -31 -33 2 -28 8 -34
31 -36 27 -3 27 -2 27 52 0 59 -4 70 -13 36z m-2 -55 c0 -11 -8 -21 -17 -23
-14 -3 -18 3 -18 23 0 20 4 26 18 23 9 -2 17 -12 17 -23z"/>
<path d="M4343 2465 c0 -33 2 -45 4 -27 2 18 2 45 0 60 -2 15 -4 0 -4 -33z"/>
<path d="M5181 2467 c-1 -58 -1 -58 27 -55 19 2 28 9 30 26 4 27 -16 55 -34
48 -7 -3 -15 4 -17 17 -2 12 -5 -4 -6 -36z m47 -19 c-2 -13 -10 -23 -18 -23
-8 0 -16 10 -18 23 -3 17 2 22 18 22 16 0 21 -5 18 -22z"/>
<path d="M5263 2465 c0 -33 2 -45 4 -27 2 18 2 45 0 60 -2 15 -4 0 -4 -33z"/>
<path d="M6122 2465 c0 -43 2 -51 7 -30 9 43 39 45 44 3 l4 -33 1 38 c1 20 -2
38 -8 38 -5 1 -15 2 -21 3 -7 0 -15 10 -20 21 -5 13 -7 -1 -7 -40z"/>
<path d="M6751 2467 c-1 -58 -1 -58 27 -55 22 2 28 8 30 36 2 17 -2 33 -7 33
-6 1 -16 2 -22 3 -7 0 -15 10 -20 21 -5 13 -8 1 -8 -38z m49 -22 c0 -25 -23
-35 -35 -15 -10 16 2 40 20 40 9 0 15 -9 15 -25z"/>
<path d="M7213 2465 c0 -33 1 -52 4 -42 2 9 8 17 13 17 5 0 14 -8 19 -17 6
-10 11 -13 11 -7 0 5 -5 15 -12 22 -8 8 -8 15 2 29 12 15 12 16 0 6 -22 -20
-28 -16 -33 20 -2 17 -4 5 -4 -28z"/>
<path d="M7322 2499 c-7 -18 -4 -94 3 -87 2 2 5 21 7 43 2 22 7 46 12 53 4 7
2 12 -4 12 -6 0 -14 -9 -18 -21z"/>
<path d="M8243 2465 c0 -33 2 -45 4 -27 2 18 2 45 0 60 -2 15 -4 0 -4 -33z"/>
<path d="M8863 2465 c0 -33 2 -45 4 -27 2 18 2 45 0 60 -2 15 -4 0 -4 -33z"/>
<path d="M9033 2465 c0 -33 2 -45 4 -27 2 18 2 45 0 60 -2 15 -4 0 -4 -33z"/>
<path d="M9223 2465 c0 -33 2 -45 4 -27 4 28 8 33 24 29 13 -3 19 -1 16 6 -2
7 -10 12 -18 12 -8 0 -17 9 -21 20 -3 11 -6 -7 -5 -40z"/>
<path d="M9663 2465 c0 -33 2 -45 4 -27 3 24 9 32 24 32 15 0 19 -8 20 -32 2
-32 2 -32 6 -5 5 32 -12 58 -32 51 -8 -4 -15 3 -18 18 -2 13 -4 -4 -4 -37z"/>
<path d="M335 2483 c8 -18 15 -42 16 -55 1 -19 2 -18 8 7 4 17 13 41 20 55
l12 25 -19 -23 -18 -24 -17 24 c-17 22 -17 22 -2 -9z"/>
<path d="M1621 2458 c2 -49 2 -50 9 -18 l7 35 13 -33 c9 -25 15 -30 21 -20 12
17 11 31 0 23 -5 -3 -15 11 -22 30 -18 50 -29 43 -28 -17z"/>
<path d="M1690 2501 c0 -5 -3 -17 -7 -27 -4 -11 -3 -15 5 -10 7 4 12 -6 15
-26 3 -23 4 -17 5 20 1 29 -2 52 -8 52 -5 0 -10 -4 -10 -9z"/>
<path d="M3020 2486 c0 -16 7 -26 21 -29 27 -7 20 -29 -12 -39 -22 -6 -21 -7
6 -5 23 2 31 7 33 25 3 17 -2 25 -17 29 -26 7 -28 30 -3 36 13 4 11 5 -5 6
-18 1 -23 -4 -23 -23z"/>
<path d="M3105 2500 c-3 -5 -2 -10 4 -10 5 0 12 -19 14 -42 3 -41 4 -41 5 10
2 48 -8 66 -23 42z"/>
<path d="M3381 2497 c-8 -10 -7 -14 4 -14 8 0 15 6 15 14 0 7 -2 13 -4 13 -2
0 -9 -6 -15 -13z"/>
<path d="M3449 2486 c-16 -33 2 -79 29 -74 13 3 17 13 17 48 0 54 -27 69 -46
26z m41 -26 c0 -43 -23 -57 -35 -20 -9 27 3 60 21 60 10 0 14 -12 14 -40z"/>
<path d="M3524 2486 c-10 -43 3 -78 29 -74 19 3 22 9 22 48 0 39 -3 45 -22 48
-17 3 -24 -3 -29 -22z m41 -27 c0 -24 -5 -34 -15 -34 -16 0 -25 37 -16 62 10
26 31 8 31 -28z"/>
<path d="M3900 2486 c-5 -15 -11 -37 -13 -49 -2 -12 -2 -16 0 -9 7 19 53 15
53 -5 0 -9 3 -14 6 -10 7 6 -14 77 -27 91 -5 5 -13 -2 -19 -18z m30 -27 c0 -5
-7 -9 -15 -9 -15 0 -20 12 -9 23 8 8 24 -1 24 -14z"/>
<path d="M5453 2460 c0 -30 2 -43 4 -27 3 21 10 27 28 27 18 0 25 -6 28 -27 2
-16 4 -3 4 27 0 30 -2 45 -4 33 -3 -16 -11 -23 -28 -23 -17 0 -25 7 -28 23 -2
12 -4 -3 -4 -33z"/>
<path d="M2107 2493 c-2 -5 -2 -25 0 -45 4 -27 10 -38 22 -38 13 0 13 2 2 9
-9 6 -12 19 -8 40 6 28 -6 52 -16 34z"/>
<path d="M3207 2493 c-2 -5 -2 -25 0 -45 4 -27 10 -38 22 -38 13 0 13 2 2 9
-9 6 -12 19 -8 40 6 28 -6 52 -16 34z"/>
<path d="M4408 2487 c-8 -22 7 -70 22 -74 12 -4 13 -3 1 5 -9 7 -12 20 -8 41
6 29 -7 53 -15 28z"/>
<path d="M5058 2487 c-8 -22 7 -70 22 -74 12 -4 13 -3 1 5 -9 7 -12 20 -8 41
6 29 -7 53 -15 28z"/>
<path d="M6077 2493 c-2 -5 -2 -25 0 -45 4 -27 10 -38 22 -38 13 0 13 2 2 9
-9 6 -12 19 -8 40 6 28 -6 52 -16 34z"/>
<path d="M9168 2487 c-8 -22 7 -70 22 -74 12 -4 13 -3 1 5 -9 7 -12 20 -8 41
6 29 -7 53 -15 28z"/>
<path d="M400 2475 c-7 -8 -10 -25 -6 -40 5 -19 12 -25 34 -24 27 1 27 1 3 8
-31 8 -38 51 -9 51 11 0 16 -4 13 -10 -3 -5 -1 -10 4 -10 14 0 14 13 -1 28
-16 16 -23 15 -38 -3z"/>
<path d="M550 2476 c-6 -8 -10 -25 -8 -38 2 -17 10 -23 28 -23 18 0 26 6 28
23 3 22 -13 52 -28 52 -4 0 -13 -7 -20 -14z m38 -28 c-2 -13 -10 -23 -18 -23
-8 0 -16 10 -18 23 -3 17 2 22 18 22 16 0 21 -5 18 -22z"/>
<path d="M1752 2481 c-8 -5 -12 -21 -10 -37 4 -40 44 -47 54 -10 4 16 1 32 -6
41 -14 17 -20 18 -38 6z m36 -33 c-5 -34 -38 -37 -38 -4 0 20 5 26 21 26 15 0
20 -5 17 -22z"/>
<path d="M1910 2476 c-20 -25 -8 -61 20 -63 21 -2 22 -1 6 5 -22 10 -30 52 -9
52 7 0 13 -4 13 -10 0 -5 5 -10 10 -10 7 0 7 6 0 20 -13 24 -23 25 -40 6z"/>
<path d="M1993 2483 c-8 -3 -12 -20 -12 -41 2 -34 2 -34 6 -7 3 16 12 35 21
42 17 12 8 16 -15 6z"/>
<path d="M2044 2479 c-4 -7 -3 -9 4 -5 6 3 14 1 17 -5 4 -6 -2 -13 -14 -16
-31 -8 -28 -43 5 -43 23 0 25 3 22 37 -3 37 -20 54 -34 32z m26 -49 c0 -5 -7
-10 -15 -10 -8 0 -15 5 -15 10 0 6 7 10 15 10 8 0 15 -4 15 -10z"/>
<path d="M2160 2476 c-20 -25 -8 -61 20 -63 21 -2 22 -1 6 5 -22 10 -30 52 -9
52 7 0 13 -4 13 -10 0 -5 5 -10 10 -10 7 0 7 6 0 20 -13 24 -23 25 -40 6z"/>
<path d="M3260 2476 c-6 -8 -10 -25 -8 -38 2 -17 10 -23 28 -23 18 0 26 6 28
23 3 22 -13 52 -28 52 -4 0 -13 -7 -20 -14z m38 -28 c-2 -13 -10 -23 -18 -23
-8 0 -16 10 -18 23 -3 17 2 22 18 22 16 0 21 -5 18 -22z"/>
<path d="M4023 2483 c-8 -3 -12 -20 -12 -41 2 -34 2 -34 6 -7 3 16 12 35 21
42 17 12 8 16 -15 6z"/>
<path d="M4110 2480 c-6 -4 -10 -20 -8 -36 2 -21 9 -30 25 -32 12 -2 24 -11
26 -20 3 -9 5 6 6 34 1 43 -2 53 -18 57 -10 2 -24 1 -31 -3z m35 -35 c0 -11
-8 -21 -17 -23 -14 -3 -18 3 -18 23 0 20 4 26 18 23 9 -2 17 -12 17 -23z"/>
<path d="M4274 2479 c-4 -7 -3 -9 4 -5 6 3 14 1 17 -5 4 -6 -2 -13 -14 -16
-31 -8 -28 -43 5 -43 23 0 25 3 22 37 -3 37 -20 54 -34 32z m26 -49 c0 -5 -7
-10 -15 -10 -8 0 -15 5 -15 10 0 6 7 10 15 10 8 0 15 -4 15 -10z"/>
<path d="M4603 2474 c-4 -10 1 -22 10 -29 22 -16 21 -22 0 -28 -14 -4 -12 -5
5 -6 27 -1 30 26 5 45 -17 13 -17 13 0 14 10 0 15 5 12 10 -9 15 -25 12 -32
-6z"/>
<path d="M4705 2480 c-3 -5 2 -10 13 -10 12 0 18 -7 17 -20 -2 -25 -11 -34
-25 -25 -9 6 -9 10 1 17 11 8 11 9 -1 5 -26 -7 -17 -32 13 -35 24 -3 27 0 27
25 0 40 -29 68 -45 43z"/>
<path d="M4780 2476 c-20 -25 -8 -61 20 -63 25 -3 25 -3 3 7 -30 12 -31 50 -2
50 11 0 17 5 14 10 -9 14 -21 12 -35 -4z"/>
<path d="M4846 2474 c-19 -19 -20 -25 -3 -48 8 -11 20 -16 28 -13 11 4 10 6
-2 6 -32 2 -35 51 -3 51 8 0 14 5 14 10 0 15 -16 12 -34 -6z"/>
<path d="M4910 2476 c-20 -25 -8 -61 20 -63 21 -2 22 -1 6 5 -22 10 -30 52 -9
52 7 0 13 -4 13 -10 0 -5 5 -10 10 -10 7 0 7 6 0 20 -13 24 -23 25 -40 6z"/>
<path d="M4993 2483 c-8 -3 -13 -23 -12 -56 1 -29 3 -44 6 -34 2 9 13 17 24
17 23 0 36 44 19 65 -13 16 -17 17 -37 8z m32 -38 c0 -11 -8 -21 -17 -23 -14
-3 -18 3 -18 23 0 20 4 26 18 23 9 -2 17 -12 17 -23z"/>
<path d="M5115 2480 c-3 -5 2 -10 13 -10 12 0 18 -7 17 -20 -2 -25 -11 -34
-25 -25 -9 6 -9 10 1 17 11 8 11 9 -1 5 -26 -7 -17 -32 13 -35 24 -3 27 0 27
25 0 40 -29 68 -45 43z"/>
<path d="M5311 2480 c-7 -4 -11 -20 -9 -36 2 -22 8 -29 26 -30 16 -1 17 0 3 3
-22 5 -25 53 -3 53 7 0 10 -4 7 -10 -3 -5 -1 -10 4 -10 16 0 13 27 -2 33 -8 3
-19 2 -26 -3z"/>
<path d="M5555 2474 c-18 -18 -18 -20 -5 -45 20 -36 68 -10 55 30 -8 26 -31
33 -50 15z m39 -37 c-3 -9 -12 -17 -19 -17 -19 0 -27 30 -14 47 10 12 14 12
26 0 8 -7 11 -21 7 -30z"/>
<path d="M5740 2476 c-20 -25 -8 -61 20 -63 21 -2 22 -1 6 5 -22 10 -30 52 -9
52 7 0 13 -4 13 -10 0 -5 5 -10 10 -10 7 0 7 6 0 20 -13 24 -23 25 -40 6z"/>
<path d="M5880 2476 c-20 -25 -8 -61 20 -63 21 -2 22 -1 6 5 -22 10 -30 52 -9
52 7 0 13 -4 13 -10 0 -5 5 -10 10 -10 7 0 7 6 0 20 -13 24 -23 25 -40 6z"/>
<path d="M5963 2483 c-8 -3 -12 -20 -12 -41 2 -34 2 -34 6 -7 3 16 12 35 21
42 17 12 8 16 -15 6z"/>
<path d="M6210 2475 c-7 -8 -10 -25 -6 -40 5 -19 12 -25 34 -24 27 1 27 1 3 8
-31 8 -38 51 -9 51 11 0 16 -4 13 -10 -3 -5 -1 -10 4 -10 14 0 14 13 -1 28
-16 16 -23 15 -38 -3z"/>
<path d="M6298 2483 c-14 -3 -18 -14 -17 -41 2 -34 2 -34 6 -7 3 16 12 35 21
42 18 13 17 13 -10 6z"/>
<path d="M6345 2474 c-18 -19 -19 -25 -2 -48 8 -11 21 -16 33 -13 17 4 17 5
-2 6 -17 1 -22 7 -20 26 0 14 7 25 14 25 7 0 10 -4 7 -10 -3 -5 -1 -10 4 -10
16 0 13 27 -4 34 -8 3 -21 -2 -30 -10z"/>
<path d="M6463 2483 c-8 -3 -12 -20 -11 -41 l1 -37 4 33 c3 19 10 32 19 32 9
0 14 -11 15 -32 l1 -33 7 30 c3 17 14 31 24 33 13 3 17 -4 18 -30 2 -32 2 -32
6 -4 3 16 0 33 -6 39 -11 11 -58 17 -78 10z"/>
<path d="M6584 2479 c-4 -7 -3 -9 4 -5 6 3 14 1 17 -5 4 -6 -2 -13 -14 -16
-31 -8 -28 -43 5 -43 23 0 25 3 22 37 -3 37 -20 54 -34 32z m26 -49 c0 -5 -7
-10 -15 -10 -8 0 -15 5 -15 10 0 6 7 10 15 10 8 0 15 -4 15 -10z"/>
<path d="M6840 2475 c-7 -8 -10 -25 -6 -40 5 -19 12 -25 34 -24 27 1 27 1 3 8
-31 8 -38 51 -9 51 11 0 16 -4 13 -10 -3 -5 -1 -10 4 -10 14 0 14 13 -1 28
-16 16 -23 15 -38 -3z"/>
<path d="M6954 2479 c-4 -7 -3 -9 4 -5 6 3 14 1 17 -5 4 -6 -2 -13 -14 -16
-29 -7 -23 -37 7 -41 21 -3 23 0 20 34 -3 38 -20 55 -34 33z m26 -44 c0 -8 -7
-15 -15 -15 -26 0 -18 20 13 29 1 1 2 -6 2 -14z"/>
<path d="M7073 2483 c-8 -3 -12 -20 -12 -41 2 -34 2 -35 6 -7 3 16 10 33 16
37 14 9 6 17 -10 11z"/>
<path d="M7150 2476 c-9 -12 -7 -17 9 -28 27 -17 27 -28 -1 -29 -19 -1 -20 -2
-4 -6 10 -3 23 0 30 7 8 9 5 16 -13 31 -23 19 -23 19 -2 19 12 0 19 5 16 10
-9 14 -21 12 -35 -4z"/>
<path d="M7370 2476 c-6 -8 -10 -25 -8 -38 2 -17 10 -23 28 -23 18 0 26 6 28
23 3 22 -13 52 -28 52 -4 0 -13 -7 -20 -14z m38 -28 c-2 -13 -10 -23 -18 -23
-8 0 -16 10 -18 23 -3 17 2 22 18 22 16 0 21 -5 18 -22z"/>
<path d="M7463 2483 c-8 -3 -12 -20 -12 -41 2 -34 2 -35 6 -7 3 16 10 33 16
37 14 9 6 17 -10 11z"/>
<path d="M7540 2476 c-9 -12 -7 -17 9 -28 27 -17 27 -28 -1 -29 -19 -1 -20 -2
-4 -6 10 -3 23 0 30 7 8 9 5 16 -13 31 -23 19 -23 19 -2 19 12 0 19 5 16 10
-9 14 -21 12 -35 -4z"/>
<path d="M7612 2481 c-8 -5 -12 -21 -10 -37 4 -40 44 -47 54 -10 4 16 1 32 -6
41 -14 17 -20 18 -38 6z m36 -33 c-5 -34 -38 -37 -38 -4 0 20 5 26 21 26 15 0
20 -5 17 -22z"/>
<path d="M7698 2482 c-14 -3 -18 -12 -16 -40 l1 -37 4 33 c5 42 35 40 44 -3
l7 -30 1 33 c1 21 6 32 15 32 9 0 16 -13 19 -32 4 -32 4 -32 5 5 1 20 -1 37
-5 38 -34 3 -61 4 -75 1z"/>
<path d="M7810 2475 c-7 -8 -10 -25 -6 -40 5 -19 12 -25 34 -24 27 1 27 1 3 8
-31 8 -38 51 -9 51 11 0 16 -4 13 -10 -3 -5 -1 -10 4 -10 14 0 14 13 -1 28
-16 16 -23 15 -38 -3z"/>
<path d="M7933 2483 c-8 -3 -13 -23 -12 -56 1 -29 3 -44 6 -34 2 9 13 17 24
17 23 0 36 44 19 65 -13 16 -17 17 -37 8z m32 -38 c0 -11 -8 -21 -17 -23 -14
-3 -18 3 -18 23 0 20 4 26 18 23 9 -2 17 -12 17 -23z"/>
<path d="M8011 2480 c-7 -4 -11 -20 -9 -36 2 -22 8 -29 26 -30 16 -1 17 0 3 3
-22 5 -25 53 -3 53 7 0 10 -4 7 -10 -3 -5 -1 -10 4 -10 16 0 13 27 -2 33 -8 3
-19 2 -26 -3z"/>
<path d="M8080 2475 c-7 -9 -10 -25 -6 -41 10 -37 50 -30 54 10 5 40 -25 59
-48 31z m40 -30 c0 -25 -23 -35 -35 -15 -10 16 2 40 20 40 9 0 15 -9 15 -25z"/>
<path d="M8173 2483 c-8 -3 -13 -23 -12 -56 1 -29 3 -44 6 -34 2 9 11 17 18
17 23 0 38 36 25 60 -11 20 -16 22 -37 13z m30 -49 c-9 -23 -33 -16 -33 9 0
13 3 27 7 31 11 10 33 -23 26 -40z"/>
<path d="M8280 2476 c-20 -25 -8 -61 20 -63 21 -2 22 -1 6 5 -22 10 -30 52 -9
52 7 0 13 -4 13 -10 0 -5 5 -10 10 -10 7 0 7 6 0 20 -13 24 -23 25 -40 6z"/>
<path d="M8438 2482 c-15 -3 -18 -14 -17 -55 1 -29 3 -44 6 -35 2 9 14 18 26
20 15 2 23 11 25 29 3 29 -14 47 -40 41z m30 -34 c-2 -13 -10 -23 -18 -23 -8
0 -16 10 -18 23 -3 17 2 22 18 22 16 0 21 -5 18 -22z"/>
<path d="M8514 2479 c-4 -7 -3 -9 4 -5 6 3 14 1 17 -5 4 -6 -2 -13 -14 -16
-31 -8 -28 -43 5 -43 23 0 25 3 22 37 -3 37 -20 54 -34 32z m26 -49 c0 -5 -7
-10 -15 -10 -8 0 -15 5 -15 10 0 6 7 10 15 10 8 0 15 -4 15 -10z"/>
<path d="M8593 2483 c-8 -3 -12 -20 -12 -41 2 -34 2 -35 6 -7 3 16 10 33 16
37 14 9 6 17 -10 11z"/>
<path d="M8632 2453 c2 -21 9 -38 18 -41 13 -5 13 -3 1 11 -8 10 -11 27 -7 42
4 15 2 25 -4 25 -7 0 -10 -15 -8 -37z"/>
<path d="M8720 2475 c-19 -23 -4 -65 23 -64 l22 0 -22 9 c-13 5 -23 16 -23 23
0 19 24 39 35 29 5 -4 5 -1 1 6 -10 16 -21 15 -36 -3z"/>
<path d="M8905 2480 c-3 -5 2 -10 13 -10 12 0 18 -7 17 -20 -2 -25 -11 -34
-25 -25 -9 6 -9 10 1 17 11 8 11 9 -1 5 -26 -7 -17 -32 13 -35 24 -3 27 0 27
25 0 40 -29 68 -45 43z"/>
<path d="M8988 2483 c-14 -3 -18 -14 -17 -41 1 -28 3 -31 6 -12 3 14 12 33 20
43 9 9 14 16 12 16 -2 -1 -12 -3 -21 -6z"/>
<path d="M9312 2481 c-8 -5 -12 -21 -10 -37 4 -40 44 -47 54 -10 4 16 1 32 -6
41 -14 17 -20 18 -38 6z m36 -33 c-5 -34 -38 -37 -38 -4 0 20 5 26 21 26 15 0
20 -5 17 -22z"/>
<path d="M9383 2474 c-4 -10 1 -22 10 -29 22 -16 21 -22 0 -28 -14 -4 -12 -5
5 -6 27 -1 30 26 5 45 -17 13 -17 13 0 14 10 0 15 5 12 10 -9 15 -25 12 -32
-6z"/>
<path d="M9450 2476 c-20 -25 -8 -61 20 -63 21 -2 22 -1 6 5 -22 10 -30 52 -9
52 7 0 13 -4 13 -10 0 -5 5 -10 10 -10 7 0 7 6 0 20 -13 24 -23 25 -40 6z"/>
<path d="M9750 2476 c-6 -8 -10 -25 -8 -38 2 -17 10 -23 28 -23 18 0 26 6 28
23 3 22 -13 52 -28 52 -4 0 -13 -7 -20 -14z m38 -28 c-2 -13 -10 -23 -18 -23
-8 0 -16 10 -18 23 -3 17 2 22 18 22 16 0 21 -5 18 -22z"/>
<path d="M9865 2479 c-4 -6 0 -9 11 -7 13 2 18 -3 18 -21 0 -14 -6 -27 -13
-29 -10 -3 -12 0 -8 12 4 9 2 16 -3 16 -6 0 -10 -9 -10 -20 0 -15 7 -20 25
-20 22 0 25 4 25 34 0 22 -6 36 -16 40 -21 8 -22 8 -29 -5z"/>
<path d="M9948 2483 c-14 -3 -18 -14 -17 -41 1 -28 3 -31 6 -12 3 14 12 33 20
43 9 9 14 16 12 16 -2 -1 -12 -3 -21 -6z"/>
<path d="M10001 2480 c-7 -4 -11 -20 -9 -36 2 -22 8 -29 26 -30 16 -1 17 0 3
3 -22 5 -25 53 -3 53 7 0 10 -4 7 -10 -3 -5 -1 -10 4 -10 16 0 13 27 -2 33 -8
3 -19 2 -26 -3z"/>
<path d="M621 2470 c-1 -24 11 -60 20 -60 5 0 9 9 9 19 0 31 17 34 24 4 8 -30
21 -21 30 22 6 30 6 30 -8 6 l-14 -24 -6 21 c-9 28 -22 28 -31 0 l-7 -23 -8
25 c-4 14 -8 18 -9 10z"/>
<path d="M3973 2445 c0 -22 2 -30 4 -17 2 12 2 30 0 40 -3 9 -5 -1 -4 -23z"/>
<path d="M4183 2448 c2 -28 6 -34 30 -36 25 -3 27 -1 26 35 -1 36 -2 37 -8 8
-9 -42 -38 -45 -45 -6 l-6 31 3 -32z"/>
<path d="M4383 2445 c0 -22 2 -30 4 -17 2 12 2 30 0 40 -3 9 -5 -1 -4 -23z"/>
<path d="M4456 2465 c15 -47 16 -68 3 -77 -12 -8 -11 -9 1 -5 8 2 23 25 33 51
9 26 13 44 7 41 -5 -3 -10 -13 -10 -21 0 -21 -15 -17 -29 9 -9 16 -10 17 -5 2z"/>
<path d="M4563 2445 c0 -22 2 -30 4 -17 2 12 2 30 0 40 -3 9 -5 -1 -4 -23z"/>
<path d="M5655 2460 c-4 -11 -11 -18 -16 -15 -5 4 -9 -1 -9 -9 0 -26 19 -28
26 -1 3 13 10 22 15 19 5 -3 9 2 9 10 0 23 -17 20 -25 -4z"/>
<path d="M5700 2462 c0 -12 -4 -22 -10 -22 -5 0 -10 -7 -10 -15 0 -8 4 -15 9
-15 11 0 26 59 17 67 -3 4 -6 -3 -6 -15z"/>
<path d="M5801 2479 c-2 -13 21 -69 28 -69 4 0 12 16 18 35 6 19 7 33 2 29 -5
-3 -9 -12 -9 -20 0 -21 -16 -17 -28 9 -6 12 -11 19 -11 16z"/>
<path d="M6646 2465 c15 -47 16 -68 3 -77 -12 -8 -11 -9 1 -5 8 2 23 25 33 51
9 26 13 44 7 41 -5 -3 -10 -13 -10 -21 0 -21 -15 -17 -29 9 -9 16 -10 17 -5 2z"/>
<path d="M7113 2445 c0 -22 2 -30 4 -17 2 12 2 30 0 40 -3 9 -5 -1 -4 -23z"/>
<path d="M8683 2445 c0 -22 2 -30 4 -17 2 12 2 30 0 40 -3 9 -5 -1 -4 -23z"/>
<path d="M8783 2448 c2 -28 6 -34 30 -36 25 -3 27 -1 26 35 -1 36 -2 37 -8 8
-9 -42 -38 -45 -45 -6 l-6 31 3 -32z"/>
<path d="M9065 2467 c16 -58 17 -70 4 -79 -12 -8 -12 -9 0 -6 7 2 22 25 32 52
11 26 15 44 9 41 -5 -3 -10 -13 -10 -21 0 -21 -15 -17 -29 9 -7 13 -10 15 -6
4z"/>
<path d="M9555 2460 c2 -14 5 -31 5 -37 0 -24 18 -13 25 15 l8 27 10 -27 c11
-29 27 -38 27 -15 0 6 3 23 5 37 l6 25 -12 -25 -11 -25 -9 23 c-4 12 -11 22
-14 22 -3 0 -10 -10 -14 -22 l-9 -23 -11 25 -12 25 6 -25z"/>
<path d="M5375 2420 c-3 -5 -1 -10 4 -10 6 0 11 5 11 10 0 6 -2 10 -4 10 -3 0
-8 -4 -11 -10z"/>
<path d="M6000 2410 c0 -11 2 -20 4 -20 2 0 6 9 9 20 3 11 1 20 -4 20 -5 0 -9
-9 -9 -20z"/>
<path d="M8346 2415 c-9 -26 -7 -32 5 -12 6 10 9 21 6 23 -2 3 -7 -2 -11 -11z"/>
<path d="M4353 2265 c0 -33 2 -45 4 -27 2 18 2 45 0 60 -2 15 -4 0 -4 -33z"/>
<path d="M4393 2265 c0 -33 2 -45 4 -27 2 18 2 45 0 60 -2 15 -4 0 -4 -33z"/>
<path d="M5643 2265 c0 -33 2 -45 4 -27 2 18 2 45 0 60 -2 15 -4 0 -4 -33z"/>
<path d="M5683 2265 c0 -33 2 -45 4 -27 2 18 2 45 0 60 -2 15 -4 0 -4 -33z"/>
<path d="M4848 2287 c-8 -22 7 -70 22 -74 12 -4 13 -3 1 5 -9 7 -12 20 -8 41
6 29 -7 53 -15 28z"/>
<path d="M5797 2293 c-2 -5 -2 -25 0 -45 4 -27 10 -38 22 -38 13 0 13 2 2 9
-9 6 -12 19 -8 40 6 28 -6 52 -16 34z"/>
<path d="M3983 2283 c-8 -3 -12 -20 -11 -41 l1 -37 4 33 c4 28 8 33 24 29 12
-3 19 -1 16 6 -4 13 -18 17 -34 10z"/>
<path d="M4133 2274 c-4 -10 0 -20 10 -26 22 -12 22 -25 0 -31 -14 -4 -12 -5
5 -6 26 -1 32 33 6 43 -8 3 -12 10 -9 16 4 6 11 7 17 4 7 -4 8 -2 4 4 -10 17
-26 15 -33 -4z"/>
<path d="M4285 2280 c-3 -5 2 -10 13 -10 12 0 18 -7 17 -20 -2 -25 -11 -34
-25 -25 -9 6 -9 10 1 17 11 8 11 9 -1 5 -26 -7 -17 -32 13 -35 24 -3 27 0 27
25 0 40 -29 68 -45 43z"/>
<path d="M4533 2274 c-4 -10 1 -22 10 -29 22 -16 21 -22 0 -28 -14 -4 -12 -5
5 -6 27 -1 30 26 5 45 -17 13 -17 13 0 14 10 0 15 5 12 10 -9 15 -25 12 -32
-6z"/>
<path d="M4600 2276 c-20 -25 -8 -61 20 -63 21 -2 22 -1 6 5 -22 10 -30 52 -9
52 7 0 13 -4 13 -10 0 -5 5 -10 10 -10 7 0 7 6 0 20 -13 24 -23 25 -40 6z"/>
<path d="M4683 2283 c-8 -3 -12 -20 -11 -41 l1 -37 4 33 c4 28 8 33 24 29 12
-3 19 -1 16 6 -4 13 -18 17 -34 10z"/>
<path d="M4753 2274 c-4 -10 1 -22 10 -29 22 -16 21 -22 0 -28 -14 -4 -12 -5
5 -6 27 -1 30 26 5 45 -17 13 -17 13 0 14 10 0 15 5 12 10 -9 15 -25 12 -32
-6z"/>
<path d="M5011 2280 c-7 -4 -11 -20 -9 -36 2 -22 8 -29 26 -30 16 -1 17 0 3 3
-22 5 -25 53 -3 53 7 0 10 -4 7 -10 -3 -5 -1 -10 4 -10 16 0 13 27 -2 33 -8 3
-19 2 -26 -3z"/>
<path d="M5112 2253 c2 -21 9 -38 18 -41 13 -5 13 -3 1 11 -8 10 -11 27 -7 42
4 15 2 25 -4 25 -7 0 -10 -15 -8 -37z"/>
<path d="M5172 2281 c-8 -5 -12 -21 -10 -37 4 -40 44 -47 54 -10 4 16 1 32 -6
41 -14 17 -20 18 -38 6z m36 -33 c-5 -34 -38 -37 -38 -4 0 20 5 26 21 26 15 0
20 -5 17 -22z"/>
<path d="M5285 2280 c-3 -5 2 -10 13 -10 12 0 18 -7 17 -20 -2 -25 -11 -34
-25 -25 -9 6 -9 10 1 17 11 8 11 9 -1 5 -26 -7 -17 -32 13 -35 24 -3 27 0 27
25 0 40 -29 68 -45 43z"/>
<path d="M5403 2283 c-8 -3 -12 -20 -12 -41 2 -34 2 -34 6 -7 3 16 12 35 21
42 17 12 8 16 -15 6z"/>
<path d="M5498 2282 c-15 -3 -18 -14 -17 -55 1 -29 3 -44 6 -35 2 9 14 18 26
20 15 2 23 11 25 29 3 29 -14 47 -40 41z m30 -34 c-2 -13 -10 -23 -18 -23 -8
0 -16 10 -18 23 -3 17 2 22 18 22 16 0 21 -5 18 -22z"/>
<path d="M5570 2276 c-6 -8 -10 -25 -8 -38 2 -17 10 -23 28 -23 18 0 26 6 28
23 3 22 -13 52 -28 52 -4 0 -13 -7 -20 -14z m38 -28 c-2 -13 -10 -23 -18 -23
-8 0 -16 10 -18 23 -3 17 2 22 18 22 16 0 21 -5 18 -22z"/>
<path d="M5892 2281 c-8 -5 -12 -21 -10 -37 4 -40 44 -47 54 -10 4 16 1 32 -6
41 -14 17 -20 18 -38 6z m36 -33 c-5 -34 -38 -37 -38 -4 0 20 5 26 21 26 15 0
20 -5 17 -22z"/>
<path d="M5978 2282 c-14 -2 -18 -13 -17 -40 1 -36 2 -36 8 -7 9 43 39 45 44
3 l4 -33 1 36 c2 38 -9 49 -40 41z"/>
<path d="M3882 2260 c0 -14 2 -19 5 -12 2 6 2 18 0 25 -3 6 -5 1 -5 -13z"/>
<path d="M3930 2249 c0 -26 -3 -31 -20 -26 -11 3 -20 1 -20 -4 0 -5 11 -9 25
-9 22 0 25 4 25 35 0 19 -2 35 -5 35 -3 0 -5 -14 -5 -31z"/>
<path d="M4053 2248 c2 -28 6 -34 30 -36 25 -3 27 -1 26 35 -1 36 -2 37 -8 8
-9 -42 -38 -45 -45 -6 l-6 31 3 -32z"/>
<path d="M4192 2260 c0 -14 2 -19 5 -12 2 6 2 18 0 25 -3 6 -5 1 -5 -13z"/>
<path d="M4240 2249 c0 -26 -3 -31 -20 -26 -11 3 -20 1 -20 -4 0 -5 11 -9 25
-9 22 0 25 4 25 35 0 19 -2 35 -5 35 -3 0 -5 -14 -5 -31z"/>
<path d="M4425 2267 c16 -58 17 -70 4 -79 -12 -8 -12 -9 0 -6 7 2 22 25 32 52
11 26 15 44 9 41 -5 -3 -10 -13 -10 -21 0 -21 -15 -17 -29 9 -7 13 -10 15 -6
4z"/>
<path d="M4823 2245 c0 -22 2 -30 4 -17 2 12 2 30 0 40 -3 9 -5 -1 -4 -23z"/>
<path d="M4903 2245 c0 -22 2 -30 4 -17 2 12 2 30 0 40 -3 9 -5 -1 -4 -23z"/>
<path d="M4932 2250 c14 -41 26 -46 38 -15 15 39 11 55 -4 20 l-14 -30 -11 28
c-14 37 -23 35 -9 -3z"/>
<path d="M5353 2245 c0 -22 2 -30 4 -17 2 12 2 30 0 40 -3 9 -5 -1 -4 -23z"/>
<path d="M5712 2260 c0 -14 2 -19 5 -12 2 6 2 18 0 25 -3 6 -5 1 -5 -13z"/>
<path d="M5760 2249 c0 -26 -3 -31 -20 -26 -11 3 -20 1 -20 -4 0 -5 11 -9 25
-9 22 0 25 4 25 35 0 19 -2 35 -5 35 -3 0 -5 -14 -5 -31z"/>
<path d="M5853 2245 c0 -22 2 -30 4 -17 2 12 2 30 0 40 -3 9 -5 -1 -4 -23z"/>
<path d="M6045 2220 c-3 -5 -1 -10 4 -10 6 0 11 5 11 10 0 6 -2 10 -4 10 -3 0
-8 -4 -11 -10z"/>
<path d="M20 1220 l0 -280 495 0 495 0 0 280 0 280 -495 0 -495 0 0 -280z
m610 104 l0 -55 -32 3 c-29 3 -33 6 -33 33 0 22 6 33 23 40 12 5 22 15 22 22
0 7 5 13 10 13 6 0 10 -25 10 -56z m-163 14 c-2 -18 0 -41 5 -50 13 -26 -8
-22 -26 4 l-16 22 0 -22 c0 -12 -4 -22 -10 -22 -5 0 -10 23 -10 50 0 49 0 50
31 50 30 0 31 -2 26 -32z m81 -15 c3 -18 -2 -23 -17 -23 -12 0 -21 -5 -21 -11
0 -6 9 -8 20 -4 21 7 29 -10 8 -18 -34 -12 -65 31 -47 64 14 27 53 21 57 -8z"/>
<path d="M582 1308 c2 -13 8 -23 13 -23 6 0 11 10 13 23 2 15 -2 22 -13 22
-11 0 -15 -7 -13 -22z"/>
<path d="M430 1346 c0 -9 5 -16 10 -16 6 0 10 4 10 9 0 6 -4 13 -10 16 -5 3
-10 -1 -10 -9z"/>
<path d="M1020 1220 l0 -280 890 0 890 0 0 280 0 280 -890 0 -890 0 0 -280z
m780 146 c0 -7 9 -16 20 -19 15 -4 20 -14 20 -41 0 -20 -4 -36 -10 -36 -5 0
-10 14 -10 30 0 17 -4 30 -10 30 -5 0 -10 -13 -10 -30 0 -16 -4 -30 -10 -30
-5 0 -10 25 -10 55 0 30 5 55 10 55 6 0 10 -6 10 -14z m230 -7 c0 -16 3 -19
13 -11 9 7 17 8 27 1 11 -8 12 -12 3 -16 -7 -2 -13 -12 -13 -22 0 -9 6 -23 13
-30 10 -10 8 -12 -8 -9 -13 2 -22 14 -26 33 l-7 30 -1 -32 c-2 -56 -21 -36
-21 22 0 30 5 55 10 55 6 0 10 -10 10 -21z m80 6 c0 -8 9 -15 19 -15 10 0 22
-7 25 -16 9 -25 7 -64 -4 -64 -5 0 -10 14 -10 30 0 20 -5 30 -15 30 -10 0 -15
-10 -15 -30 0 -16 -4 -30 -10 -30 -5 0 -10 25 -10 55 0 30 5 55 10 55 6 0 10
-7 10 -15z m-490 -33 c0 -21 3 -42 7 -45 13 -13 33 16 33 49 0 19 5 34 10 34
6 0 10 -18 10 -39 0 -29 -6 -44 -22 -55 -35 -24 -58 -5 -58 49 0 25 5 45 10
45 6 0 10 -17 10 -38z m138 -24 c2 -22 -1 -38 -7 -38 -6 0 -11 14 -11 31 0 38
-24 35 -28 -4 -5 -42 -22 -32 -22 14 0 39 1 40 33 37 29 -3 32 -6 35 -40z
m160 15 c3 -18 -2 -23 -17 -23 -12 0 -21 -5 -21 -11 0 -6 9 -8 20 -4 21 7 29
-10 8 -18 -34 -12 -65 31 -47 64 14 27 53 21 57 -8z m70 -14 c2 -28 -1 -37
-15 -41 -44 -12 -61 30 -20 50 l22 11 -23 0 c-14 1 -20 5 -17 12 4 5 17 9 28
7 17 -2 23 -11 25 -39z m199 21 c7 -26 19 -25 26 2 4 12 9 19 13 15 9 -9 -16
-94 -32 -108 -7 -6 -18 -8 -24 -4 -8 5 -6 11 5 19 14 10 14 15 1 54 -10 26
-11 42 -5 42 6 0 13 -9 16 -20z"/>
<path d="M1950 1289 c0 -5 5 -7 10 -4 6 3 10 8 10 11 0 2 -4 4 -10 4 -5 0 -10
-5 -10 -11z"/>
<path d="M2810 1220 l0 -280 485 0 485 0 0 280 0 280 -485 0 -485 0 0 -280z
m650 125 c0 -12 -7 -28 -16 -36 -14 -12 -13 -14 8 -23 22 -10 22 -10 -10 -14
-44 -5 -50 3 -24 31 29 30 30 61 2 52 -11 -3 -20 -2 -20 4 0 11 29 19 48 13 6
-2 12 -14 12 -27z m-452 -27 c-1 -44 -2 -46 -5 -15 -3 25 -9 37 -20 37 -13 0
-13 3 -3 15 22 27 30 16 28 -37z m97 42 c-3 -5 -14 -10 -23 -11 -14 0 -13 -3
6 -16 12 -8 22 -24 22 -34 0 -20 -28 -39 -47 -32 -19 7 -16 21 3 19 25 -2 29
24 5 31 -14 3 -21 13 -21 29 0 20 5 24 31 24 17 0 28 -4 24 -10z m65 -40 c0
-27 -4 -50 -10 -50 -5 0 -10 15 -10 34 0 19 -5 36 -12 38 -15 5 -1 28 18 28
10 0 14 -13 14 -50z m366 35 c8 -20 24 -19 24 1 0 11 8 14 28 12 25 -3 27 -6
27 -48 0 -36 -4 -45 -19 -48 -11 -2 -26 4 -33 14 -13 17 -13 17 -26 0 -21 -29
-51 -16 -55 23 -2 18 -1 39 2 47 7 19 45 18 52 -1z m-266 -6 c11 -8 12 -12 3
-16 -16 -6 -17 -53 -2 -53 5 0 8 -4 4 -10 -12 -19 -33 2 -38 38 -6 52 2 63 33
41z m75 -39 c0 -31 -3 -35 -27 -38 -22 -3 -29 2 -34 22 -8 32 12 58 40 54 17
-2 21 -10 21 -38z"/>
<path d="M3507 1354 c-10 -11 -8 -62 3 -69 13 -8 24 40 13 60 -5 8 -12 12 -16
9z"/>
<path d="M3575 1340 c-8 -25 3 -62 16 -55 5 4 9 19 9 35 0 35 -16 48 -25 20z"/>
<path d="M3304 1315 c-7 -17 4 -37 17 -30 12 8 12 45 -1 45 -6 0 -13 -7 -16
-15z"/>
<path d="M3790 1220 l0 -280 3475 0 3475 0 0 280 0 280 -3475 0 -3475 0 0
-280z m145 139 c-3 -4 -12 -6 -20 -2 -9 3 -15 -1 -15 -10 0 -9 9 -19 20 -22
11 -3 20 -15 20 -25 0 -21 -28 -40 -47 -33 -19 7 -16 21 3 19 25 -2 28 21 5
29 -26 8 -29 52 -3 57 22 6 43 -2 37 -13z m685 6 c0 -8 6 -15 14 -15 7 0 19
-7 26 -15 11 -14 14 -13 24 1 17 22 50 14 54 -14 3 -17 -2 -22 -17 -22 -12 0
-21 -5 -21 -11 0 -6 9 -8 20 -4 11 3 20 2 20 -3 0 -18 -28 -21 -51 -4 -16 11
-24 12 -27 4 -2 -7 -17 -12 -33 -12 -29 0 -29 1 -29 55 0 30 5 55 10 55 6 0
10 -7 10 -15z m407 1 c-14 -11 -15 -15 -5 -20 10 -5 10 -7 1 -12 -7 -3 -13
-19 -13 -35 0 -40 -18 -37 -22 4 -5 44 11 77 36 77 20 -1 20 -1 3 -14z m113
-1 c0 -8 9 -15 19 -15 10 0 22 -7 25 -16 9 -25 7 -64 -4 -64 -5 0 -10 14 -10
30 0 20 -5 30 -15 30 -10 0 -15 -10 -15 -30 0 -16 -4 -30 -10 -30 -5 0 -10 25
-10 55 0 30 5 55 10 55 6 0 10 -7 10 -15z m630 -40 c0 -30 -4 -55 -10 -55 -5
0 -10 25 -10 55 0 30 5 55 10 55 6 0 10 -25 10 -55z m240 40 c0 -8 7 -15 15
-15 20 0 35 -32 28 -58 -4 -16 -13 -22 -34 -22 -28 0 -29 1 -29 55 0 30 5 55
10 55 6 0 10 -7 10 -15z m80 -40 c0 -30 -4 -55 -10 -55 -5 0 -10 25 -10 55 0
30 5 55 10 55 6 0 10 -25 10 -55z m30 45 c0 -5 -5 -10 -11 -10 -5 0 -7 5 -4
10 3 6 8 10 11 10 2 0 4 -4 4 -10z m800 0 c0 -5 -5 -10 -11 -10 -5 0 -7 5 -4
10 3 6 8 10 11 10 2 0 4 -4 4 -10z m370 -4 c0 -8 10 -16 23 -18 18 -2 23 -10
25 -40 2 -22 -1 -38 -7 -38 -6 0 -11 14 -11 31 0 38 -24 35 -28 -4 -6 -49 -22
-28 -22 28 0 30 5 55 10 55 6 0 10 -6 10 -14z m230 -41 c0 -30 -4 -55 -10 -55
-5 0 -10 25 -10 55 0 30 5 55 10 55 6 0 10 -25 10 -55z m90 41 c0 -7 9 -16 20
-19 16 -4 20 -13 19 -44 -1 -35 -2 -36 -8 -9 -9 41 -31 46 -31 7 0 -17 -4 -31
-10 -31 -5 0 -10 25 -10 55 0 30 5 55 10 55 6 0 10 -6 10 -14z m206 -1 c-16
-12 -17 -15 -4 -15 9 0 18 7 22 15 6 17 36 21 36 5 0 -5 -6 -10 -12 -10 -9 0
-8 -4 2 -11 11 -8 12 -12 3 -16 -7 -2 -13 -18 -13 -34 0 -16 -4 -29 -10 -29
-5 0 -10 14 -10 30 0 20 -5 30 -15 30 -10 0 -15 -10 -15 -30 0 -40 -18 -38
-22 3 -5 44 11 77 36 77 21 -1 21 -1 2 -15z m724 1 c0 -8 10 -16 23 -18 18 -2
22 -9 22 -38 0 -32 -3 -35 -32 -38 l-33 -3 0 55 c0 31 5 56 10 56 6 0 10 -6
10 -14z m420 4 c0 -5 -4 -10 -9 -10 -5 0 -9 -6 -8 -12 1 -42 -4 -78 -12 -78
-13 0 -20 72 -9 93 9 18 38 24 38 7z m340 0 c0 -5 -5 -10 -11 -10 -5 0 -7 5
-4 10 3 6 8 10 11 10 2 0 4 -4 4 -10z m85 0 c3 -5 -1 -10 -10 -10 -9 0 -13 5
-10 10 3 6 8 10 10 10 2 0 7 -4 10 -10z m-4275 -31 c0 -5 -4 -9 -10 -9 -14 0
-12 -33 3 -49 10 -10 8 -12 -8 -9 -22 4 -39 60 -22 77 11 11 37 4 37 -10z
m2460 10 c11 -8 12 -12 3 -16 -16 -6 -17 -35 -2 -50 7 -7 7 -13 1 -17 -13 -8
-30 14 -32 44 -4 52 1 59 30 39z m480 -10 c0 -5 -5 -9 -11 -9 -6 0 -9 -10 -7
-22 2 -17 10 -23 31 -25 31 -2 34 4 10 22 -21 16 -10 45 17 45 24 0 27 -20 3
-20 -17 -1 -17 -1 0 -14 20 -16 22 -42 4 -49 -8 -3 -29 -2 -48 2 -27 5 -35 12
-37 34 -4 29 -35 39 -45 14 -7 -19 8 -41 22 -33 6 4 11 2 11 -3 0 -16 -36 -13
-50 4 -14 17 -65 21 -55 4 4 -6 13 -8 21 -5 8 3 14 1 14 -3 0 -16 -28 -20 -45
-7 -21 15 -17 55 7 70 13 8 21 6 36 -7 18 -17 20 -17 26 -1 4 11 14 15 31 11
14 -2 28 -1 31 4 6 10 34 0 34 -12z m1300 10 c11 -8 12 -12 3 -16 -16 -6 -17
-53 -2 -53 5 0 8 -4 4 -10 -12 -19 -33 2 -38 38 -6 52 2 63 33 41z m-5340 -13
c6 -8 10 -25 8 -38 -2 -18 -9 -23 -33 -23 -24 0 -31 5 -33 23 -4 25 13 52 33
52 7 0 18 -7 25 -14z m130 -7 c13 -23 13 -59 1 -59 -5 0 -11 12 -13 27 -4 39
-28 42 -28 4 0 -17 -4 -31 -10 -31 -5 0 -10 14 -10 30 0 17 -4 30 -10 30 -5 0
-10 -13 -10 -30 0 -16 -4 -30 -10 -30 -5 0 -10 18 -10 40 l0 39 45 -1 c33 0
48 -6 55 -19z m78 -6 c3 -18 -2 -23 -18 -23 -12 0 -18 -4 -15 -11 4 -6 13 -8
21 -5 8 3 14 1 14 -3 0 -14 -23 -19 -42 -9 -18 9 -25 58 -11 72 15 15 48 1 51
-21z m160 -15 c2 -22 -1 -38 -7 -38 -6 0 -11 14 -11 30 0 17 -4 30 -10 30 -5
0 -10 -13 -10 -30 0 -37 -18 -40 -22 -3 -4 39 -28 42 -28 4 0 -17 -4 -31 -10
-31 -5 0 -10 18 -10 40 l0 40 53 -2 52 -3 3 -37z m80 15 c3 -18 -2 -23 -17
-23 -12 0 -21 -5 -21 -11 0 -6 9 -8 20 -4 21 7 29 -10 8 -18 -34 -12 -65 31
-47 64 14 27 53 21 57 -8z m120 -15 c2 -22 -1 -38 -7 -38 -6 0 -11 14 -11 30
0 17 -4 30 -10 30 -5 0 -10 -13 -10 -30 0 -37 -18 -40 -22 -3 -4 39 -28 42
-28 4 0 -17 -4 -31 -10 -31 -5 0 -10 18 -10 40 l0 40 53 -2 52 -3 3 -37z m222
33 c0 -5 -7 -11 -15 -15 -8 -3 -15 -17 -15 -31 0 -14 -4 -25 -10 -25 -5 0 -10
18 -10 40 0 36 3 40 25 40 14 0 25 -4 25 -9z m60 -1 c0 -5 -8 -10 -17 -10 -17
-1 -17 -1 0 -14 21 -16 22 -42 2 -50 -19 -7 -47 3 -40 15 3 4 12 6 20 2 20 -7
19 7 -2 22 -21 16 -10 45 17 45 11 0 20 -4 20 -10z m110 -4 c6 -8 10 -25 8
-38 -2 -18 -9 -23 -33 -23 -24 0 -31 5 -33 23 -2 13 -1 30 2 38 7 18 40 18 56
0z m288 2 c20 -20 14 -38 -14 -38 -15 0 -23 -4 -19 -11 4 -6 13 -8 21 -5 8 3
14 1 14 -3 0 -14 -23 -19 -42 -9 -31 15 -17 78 17 78 6 0 16 -5 23 -12z m114
-13 c-2 -14 -9 -25 -15 -25 -5 0 -2 -9 9 -21 18 -20 18 -21 -1 -35 -35 -26
-69 -7 -55 31 4 11 5 26 3 33 -9 23 6 42 35 42 26 0 29 -3 24 -25z m66 13 c20
-20 14 -38 -14 -38 -15 0 -23 -4 -19 -11 4 -6 13 -8 21 -5 7 3 16 1 19 -4 4
-6 -7 -10 -24 -10 -24 0 -32 5 -37 25 -10 42 26 71 54 43z m86 -4 c9 -25 7
-64 -4 -64 -5 0 -10 14 -10 30 0 20 -5 30 -15 30 -10 0 -15 -10 -15 -30 0 -16
-4 -30 -10 -30 -5 0 -10 18 -10 40 0 37 2 40 29 40 17 0 31 -6 35 -16z m74 4
c20 -20 14 -38 -14 -38 -15 0 -23 -4 -19 -11 4 -6 13 -8 21 -5 8 3 14 1 14 -3
0 -14 -23 -19 -42 -9 -31 15 -17 78 17 78 6 0 16 -5 23 -12z m130 -29 c3 -37
-14 -52 -45 -42 -21 8 -15 41 10 49 l22 8 -25 6 c-37 10 -50 1 -50 -31 0 -16
-4 -29 -10 -29 -5 0 -10 18 -10 40 l0 40 53 -3 52 -2 3 -36z m152 27 c18 -23
8 -61 -17 -64 -15 -2 -23 -10 -23 -23 0 -10 -4 -19 -10 -19 -6 0 -10 27 -10
60 0 57 1 60 24 60 13 0 29 -7 36 -14z m42 -18 c2 -18 8 -33 13 -33 6 0 11 15
13 33 5 46 22 40 22 -9 0 -39 -1 -40 -32 -37 -30 3 -33 6 -36 41 -2 20 1 37 7
37 5 0 11 -15 13 -32z m198 -8 c0 -22 -4 -40 -10 -40 -5 0 -10 18 -10 40 0 22
5 40 10 40 6 0 10 -18 10 -40z m70 30 c0 -5 -6 -10 -14 -10 -8 0 -16 -6 -19
-13 -7 -19 8 -41 22 -33 6 4 11 2 11 -3 0 -16 -36 -13 -50 4 -18 21 2 65 30
65 11 0 20 -4 20 -10z m158 -32 c2 -22 -1 -38 -7 -38 -6 0 -11 14 -11 30 0 17
-4 30 -10 30 -5 0 -10 -13 -10 -30 0 -37 -18 -40 -22 -3 -4 39 -28 42 -28 4 0
-17 -4 -31 -10 -31 -5 0 -10 18 -10 40 l0 40 53 -2 52 -3 3 -37z m70 1 c2 -28
-1 -37 -15 -41 -44 -12 -61 30 -20 50 17 8 18 11 5 11 -10 1 -18 6 -18 12 0 6
10 9 23 7 17 -2 23 -10 25 -39z m40 19 l11 -23 7 23 c6 21 24 31 24 13 0 -19
-31 -96 -42 -102 -19 -12 -31 2 -13 15 14 10 14 15 0 48 -17 43 -18 48 -7 48
5 0 14 -10 20 -22z m140 10 c20 -20 14 -38 -14 -38 -14 0 -23 -4 -20 -9 9 -13
57 -10 63 4 2 8 0 23 -7 34 -11 21 3 31 15 11 5 -8 11 -7 21 1 19 16 30 4 15
-15 -9 -11 -10 -20 -1 -35 12 -23 1 -28 -18 -9 -9 9 -12 9 -12 0 0 -8 -17 -12
-45 -12 -39 0 -45 3 -51 25 -10 42 26 71 54 43z m152 -2 c18 -23 8 -61 -17
-64 -15 -2 -23 -10 -23 -23 0 -10 -4 -19 -10 -19 -6 0 -10 27 -10 60 0 57 1
60 24 60 13 0 29 -7 36 -14z m78 -13 c3 -18 -2 -23 -18 -23 -12 0 -18 -4 -15
-11 4 -6 13 -8 21 -5 8 3 14 1 14 -3 0 -14 -23 -19 -42 -9 -18 9 -25 58 -11
72 15 15 48 1 51 -21z m62 17 c0 -5 -4 -10 -10 -10 -5 0 -10 -13 -10 -30 0
-16 -4 -30 -10 -30 -5 0 -10 18 -10 40 0 33 3 40 20 40 11 0 20 -4 20 -10z
m30 -30 c0 -22 -4 -40 -10 -40 -5 0 -10 18 -10 40 0 22 5 40 10 40 6 0 10 -18
10 -40z m78 13 c3 -18 -2 -23 -17 -23 -12 0 -21 -5 -21 -11 0 -6 9 -8 20 -4
21 7 29 -10 8 -18 -34 -12 -65 31 -47 64 14 27 53 21 57 -8z m80 -15 c2 -22
-1 -38 -7 -38 -6 0 -11 14 -11 31 0 38 -24 35 -28 -4 -5 -42 -22 -32 -22 14 0
39 1 40 33 37 29 -3 32 -6 35 -40z m72 33 c0 -5 -9 -11 -21 -14 -25 -7 -22
-43 4 -41 9 1 17 -2 17 -7 0 -5 -11 -9 -25 -9 -29 0 -45 41 -25 65 13 16 50
21 50 6z m68 -18 c3 -18 -2 -23 -18 -23 -12 0 -18 -4 -15 -11 4 -6 13 -8 21
-5 8 3 14 1 14 -3 0 -14 -23 -19 -42 -9 -18 9 -25 58 -11 72 15 15 48 1 51
-21z m190 15 c20 -20 14 -38 -14 -38 -15 0 -23 -4 -19 -11 4 -6 13 -8 21 -5 7
3 16 1 19 -4 4 -6 -7 -10 -24 -10 -24 0 -32 5 -37 25 -10 42 26 71 54 43z m80
-30 c3 -36 2 -38 -27 -38 -24 0 -31 4 -31 20 0 12 10 24 23 30 l22 9 -23 0
c-14 1 -20 5 -17 12 4 5 17 9 28 7 17 -2 23 -11 25 -40z m270 30 c20 -20 14
-38 -14 -38 -15 0 -23 -4 -19 -11 4 -6 13 -8 21 -5 7 3 16 1 19 -4 4 -6 -7
-10 -24 -10 -24 0 -32 5 -37 25 -10 42 26 71 54 43z m387 2 c3 -5 -1 -10 -9
-10 -9 0 -16 5 -16 10 0 6 4 10 9 10 6 0 13 -4 16 -10z m163 -32 c2 -22 -1
-38 -7 -38 -6 0 -11 14 -11 31 0 38 -24 35 -28 -4 -4 -37 -22 -34 -22 3 0 17
-4 30 -10 30 -5 0 -10 -13 -10 -30 0 -16 -4 -30 -10 -30 -5 0 -10 18 -10 40
l0 40 53 -3 52 -2 3 -37z m70 30 c20 -20 14 -38 -14 -38 -15 0 -23 -4 -19 -11
4 -6 13 -8 21 -5 8 3 14 1 14 -3 0 -14 -23 -19 -42 -9 -31 15 -17 78 17 78 6
0 16 -5 23 -12z m130 -30 c2 -22 -1 -38 -7 -38 -6 0 -11 14 -11 31 0 38 -24
35 -28 -4 -4 -37 -22 -34 -22 3 0 17 -4 30 -10 30 -5 0 -10 -13 -10 -30 0 -16
-4 -30 -10 -30 -5 0 -10 18 -10 40 l0 40 53 -3 52 -2 3 -37z m150 30 c20 -20
14 -38 -14 -38 -15 0 -23 -4 -19 -11 4 -6 13 -8 21 -5 7 3 16 1 19 -4 4 -6 -7
-10 -24 -10 -24 0 -32 5 -37 25 -10 42 26 71 54 43z m122 1 c0 -5 -7 -9 -16
-9 -12 0 -11 -5 7 -20 23 -19 23 -21 6 -34 -19 -15 -47 -12 -47 5 0 4 7 6 15
3 22 -9 18 9 -5 29 -29 25 -40 21 -40 -13 0 -16 -4 -30 -10 -30 -5 0 -10 18
-10 39 l0 40 50 -1 c28 0 50 -4 50 -9z m115 -29 c0 -31 -3 -35 -27 -38 -22 -3
-29 2 -34 22 -8 32 12 58 40 54 17 -2 21 -10 21 -38z m150 30 c3 -6 -4 -10
-17 -11 l-23 0 23 -11 c12 -6 22 -17 22 -24 0 -16 -30 -33 -47 -27 -22 8 -14
25 7 18 26 -8 26 7 0 23 -11 7 -17 18 -14 27 7 17 40 20 49 5z m73 -2 c20 -20
14 -38 -14 -38 -15 0 -23 -4 -19 -11 4 -6 13 -8 21 -5 8 3 14 1 14 -3 0 -14
-23 -19 -42 -9 -31 15 -17 78 17 78 6 0 16 -5 23 -12z m82 -22 c4 -20 12 -30
28 -32 26 -5 28 4 5 21 -21 16 -10 45 17 45 24 0 27 -20 3 -20 -17 -1 -17 -1
0 -14 37 -28 15 -59 -36 -49 -19 4 -27 12 -29 31 -4 38 -28 40 -28 3 0 -17 -4
-31 -10 -31 -5 0 -10 18 -10 41 0 38 1 40 27 37 22 -2 29 -9 33 -32z m100 -6
c0 -22 -4 -40 -10 -40 -5 0 -10 18 -10 40 0 22 5 40 10 40 6 0 10 -18 10 -40z
m117 19 c7 -25 19 -24 28 4 5 17 8 18 11 6 7 -23 -13 -69 -29 -69 -8 0 -19 15
-25 33 l-10 32 -1 -32 c-1 -46 -21 -41 -21 5 0 31 4 38 21 39 13 1 23 -5 26
-18z m111 -6 c3 -18 -2 -23 -18 -23 -12 0 -18 -4 -15 -11 4 -6 13 -8 21 -5 8
3 14 1 14 -3 0 -14 -23 -19 -42 -9 -18 9 -25 58 -11 72 15 15 48 1 51 -21z
m112 8 c0 -11 -5 -23 -11 -27 -8 -4 -8 -9 0 -17 28 -28 0 -64 -40 -52 -16 5
-18 13 -13 48 9 63 11 67 39 67 18 0 25 -5 25 -19z m60 10 c0 -5 -7 -11 -15
-15 -8 -3 -15 -17 -15 -31 0 -14 -4 -25 -10 -25 -5 0 -10 18 -10 40 0 36 3 40
25 40 14 0 25 -4 25 -9z m70 -5 c6 -8 10 -25 8 -38 -2 -18 -9 -23 -33 -23 -24
0 -31 5 -33 23 -2 13 -1 30 2 38 7 18 40 18 56 0z m42 -18 c2 -18 8 -33 13
-33 6 0 11 15 13 33 5 46 22 40 22 -9 0 -39 -1 -40 -32 -37 -30 3 -33 6 -36
41 -2 20 1 37 7 37 5 0 11 -15 13 -32z m123 -8 c0 -29 -4 -36 -22 -38 -15 -2
-23 -10 -23 -23 0 -10 -4 -19 -10 -19 -6 0 -10 27 -10 61 l0 60 33 -3 c29 -3
32 -6 32 -38z m65 30 c0 -5 -7 -10 -16 -10 -12 0 -11 -5 7 -20 23 -19 23 -21
6 -34 -19 -15 -47 -12 -47 5 0 4 7 6 15 3 20 -8 19 13 -2 24 -21 12 -10 42 17
42 11 0 20 -4 20 -10z m158 -32 c2 -22 -1 -38 -7 -38 -6 0 -11 14 -11 30 0 17
-4 30 -10 30 -5 0 -10 -13 -10 -30 0 -16 -4 -30 -10 -30 -5 0 -10 14 -10 31 0
38 -24 35 -28 -4 -5 -42 -22 -32 -22 13 l0 40 53 -2 52 -3 3 -37z m80 0 c3
-36 2 -38 -27 -38 -24 0 -31 4 -31 20 0 12 10 24 23 30 l22 9 -23 0 c-14 1
-20 5 -17 12 4 5 17 9 28 7 17 -2 23 -11 25 -40z m29 22 c7 -26 19 -25 26 2 4
12 9 19 13 15 9 -9 -16 -94 -32 -108 -7 -6 -18 -8 -24 -4 -8 5 -6 11 5 19 14
10 14 15 1 54 -10 26 -11 42 -5 42 6 0 13 -9 16 -20z m-2127 -54 c0 -8 -4 -18
-10 -21 -5 -3 -10 3 -10 14 0 12 5 21 10 21 6 0 10 -6 10 -14z m-2945 -106 c3
-5 -1 -10 -10 -10 -9 0 -13 5 -10 10 3 6 8 10 10 10 2 0 7 -4 10 -10z m305 -4
c0 -7 9 -16 20 -19 15 -4 20 -14 20 -41 0 -20 -4 -36 -10 -36 -5 0 -10 14 -10
30 0 17 -4 30 -10 30 -5 0 -10 -13 -10 -30 0 -16 -4 -30 -10 -30 -5 0 -10 25
-10 55 0 30 5 55 10 55 6 0 10 -6 10 -14z m230 -7 c0 -16 3 -19 13 -11 9 7 17
8 27 1 11 -8 12 -12 3 -16 -7 -2 -13 -12 -13 -22 0 -9 6 -23 13 -30 10 -10 8
-12 -8 -9 -13 2 -22 14 -26 33 l-7 30 -1 -32 c-2 -56 -21 -36 -21 22 0 30 5
55 10 55 6 0 10 -10 10 -21z m80 6 c0 -8 9 -15 19 -15 10 0 22 -7 25 -16 9
-25 7 -64 -4 -64 -5 0 -10 14 -10 30 0 20 -5 30 -15 30 -10 0 -15 -10 -15 -30
0 -16 -4 -30 -10 -30 -5 0 -10 25 -10 55 0 30 5 55 10 55 6 0 10 -7 10 -15z
m220 6 c0 -5 -6 -12 -12 -14 -10 -4 -10 -6 0 -6 7 -1 15 6 18 14 4 8 16 15 28
15 20 -1 20 -1 3 -14 -14 -11 -15 -15 -5 -20 10 -5 10 -7 1 -12 -7 -3 -13 -19
-13 -35 0 -16 -4 -29 -10 -29 -5 0 -10 14 -10 30 0 17 -4 30 -10 30 -5 0 -10
-13 -10 -30 0 -16 -4 -30 -10 -30 -5 0 -10 14 -10 30 0 17 -4 30 -10 30 -5 0
-10 -7 -10 -15 0 -8 -9 -15 -20 -15 -11 0 -20 -5 -20 -11 0 -6 9 -8 20 -4 21
7 28 -10 8 -17 -35 -13 -66 29 -47 63 8 17 17 20 40 15 22 -4 31 -1 39 14 11
20 40 28 40 11z m212 -53 c-3 -32 -1 -35 22 -35 30 0 32 5 9 22 -21 16 -10 45
17 45 11 0 20 -4 20 -10 0 -5 -7 -10 -15 -10 -10 0 -8 -6 8 -23 12 -13 28 -21
35 -19 6 2 12 -1 12 -7 0 -6 -10 -10 -22 -9 -13 0 -27 0 -33 -2 -5 -1 -25 -2
-42 -1 -30 1 -33 4 -33 31 0 26 -4 30 -26 30 -21 0 -25 -4 -22 -22 2 -13 9
-24 16 -24 25 -3 27 -5 13 -13 -26 -17 -53 6 -49 42 3 28 8 33 38 38 51 9 55
6 52 -33z m-2304 5 c3 -18 -2 -23 -18 -23 -12 0 -18 -4 -15 -11 4 -6 13 -8 21
-5 8 3 14 1 14 -3 0 -14 -23 -19 -42 -9 -18 9 -25 58 -11 72 15 15 48 1 51
-21z m38 16 c4 -8 9 -8 17 0 19 19 27 12 15 -14 -8 -19 -8 -28 2 -40 10 -12
10 -15 -4 -15 -9 0 -16 5 -16 12 0 9 -3 9 -12 0 -19 -19 -30 -14 -17 9 8 15 8
24 0 32 -6 6 -11 15 -11 19 0 12 18 10 26 -3z m113 -6 c9 -17 11 -17 24 1 18
24 51 17 55 -12 3 -17 -2 -22 -17 -22 -12 0 -21 -5 -21 -11 0 -6 9 -8 20 -4
23 7 28 -10 5 -19 -9 -3 -24 3 -35 14 -24 24 -30 25 -30 5 0 -8 -9 -15 -20
-15 -11 0 -20 -6 -20 -14 0 -8 -4 -18 -10 -21 -6 -4 -10 17 -10 54 0 58 1 61
25 61 13 0 28 -8 34 -17z m141 8 c0 -5 -7 -11 -15 -15 -8 -3 -15 -17 -15 -31
0 -14 -4 -25 -10 -25 -5 0 -10 18 -10 40 0 36 3 40 25 40 14 0 25 -4 25 -9z
m30 -31 c0 -22 -4 -40 -10 -40 -5 0 -10 18 -10 40 0 22 5 40 10 40 6 0 10 -18
10 -40z m68 28 c20 -20 14 -38 -14 -38 -15 0 -23 -4 -19 -11 4 -6 13 -8 21 -5
7 3 16 1 19 -4 4 -6 -7 -10 -24 -10 -24 0 -32 5 -37 25 -10 42 26 71 54 43z
m86 -4 c9 -25 7 -64 -4 -64 -5 0 -10 14 -10 30 0 20 -5 30 -15 30 -10 0 -15
-10 -15 -30 0 -16 -4 -30 -10 -30 -5 0 -10 18 -10 40 0 37 2 40 29 40 17 0 31
-6 35 -16z m76 6 c0 -5 -9 -10 -20 -10 -28 0 -27 -40 1 -47 15 -4 17 -8 8 -14
-34 -21 -66 40 -37 69 15 15 48 16 48 2z m68 -17 c3 -18 -2 -23 -17 -23 -12 0
-21 -5 -21 -11 0 -6 9 -8 20 -4 21 7 29 -10 8 -18 -34 -12 -65 31 -47 64 14
27 53 21 57 -8z m160 -15 c2 -22 -1 -38 -7 -38 -6 0 -11 14 -11 31 0 38 -24
35 -28 -4 -4 -37 -22 -34 -22 3 0 17 -4 30 -10 30 -5 0 -10 -13 -10 -30 0 -16
-4 -30 -10 -30 -5 0 -10 18 -10 40 l0 40 53 -3 52 -2 3 -37z m72 28 c6 -8 10
-25 8 -38 -2 -18 -9 -23 -33 -23 -24 0 -31 5 -33 23 -4 25 13 52 33 52 7 0 18
-7 25 -14z m70 4 c0 -5 -4 -10 -10 -10 -5 0 -10 -13 -10 -30 0 -16 -4 -30 -10
-30 -5 0 -10 18 -10 40 0 33 3 40 20 40 11 0 20 -4 20 -10z m68 -17 c3 -18 -2
-23 -18 -23 -12 0 -18 -4 -15 -11 4 -6 13 -8 21 -5 8 3 14 1 14 -3 0 -14 -23
-19 -42 -9 -18 9 -25 58 -11 72 15 15 48 1 51 -21z m102 17 c0 -5 -8 -10 -17
-10 -15 0 -14 -2 3 -14 17 -13 20 -12 26 5 10 26 35 34 53 19 24 -20 18 -40
-11 -40 -15 0 -23 -4 -19 -11 4 -6 13 -8 21 -5 7 3 16 1 19 -4 4 -6 -7 -10
-24 -10 -17 0 -31 5 -31 11 0 6 -9 4 -21 -5 -21 -14 -49 -12 -49 5 0 4 7 6 15
3 20 -8 19 6 -2 21 -21 16 -10 45 17 45 11 0 20 -4 20 -10z m140 0 c0 -5 -7
-10 -15 -10 -10 0 -15 -10 -15 -30 0 -16 -4 -30 -10 -30 -5 0 -10 18 -10 40 0
36 3 40 25 40 14 0 25 -4 25 -10z m30 -36 c0 -19 -4 -34 -10 -34 -5 0 -10 18
-10 41 0 24 4 38 10 34 6 -3 10 -22 10 -41z m70 32 c6 -8 10 -25 8 -38 -2 -18
-9 -23 -33 -23 -24 0 -31 5 -33 23 -4 25 13 52 33 52 7 0 18 -7 25 -14z m42
-18 c2 -18 8 -33 13 -33 6 0 11 15 13 33 5 46 22 40 22 -9 0 -39 -1 -40 -32
-37 -30 3 -33 6 -36 41 -2 20 1 37 7 37 5 0 11 -15 13 -32z m108 22 c0 -5 -7
-10 -16 -10 -12 0 -11 -5 7 -20 23 -19 23 -21 6 -34 -19 -15 -47 -12 -47 5 0
4 7 6 15 3 20 -8 19 13 -2 24 -21 12 -10 42 17 42 11 0 20 -4 20 -10z m198
-17 c3 -18 -2 -23 -17 -23 -12 0 -21 -5 -21 -11 0 -6 9 -8 20 -4 21 7 29 -10
8 -18 -34 -12 -65 31 -47 64 14 27 53 21 57 -8z m70 -14 c2 -28 -1 -37 -15
-41 -44 -12 -61 30 -20 50 l22 11 -23 0 c-14 1 -20 5 -17 12 4 5 17 9 28 7 17
-2 23 -11 25 -39z m440 29 c20 -20 14 -38 -14 -38 -15 0 -23 -4 -19 -11 4 -6
13 -8 21 -5 7 3 16 1 19 -4 4 -6 -7 -10 -24 -10 -24 0 -32 5 -37 25 -10 42 26
71 54 43z"/>
<path d="M4622 1309 c1 -13 8 -23 13 -21 15 3 12 35 -3 40 -9 3 -13 -3 -10
-19z"/>
<path d="M6010 1305 c0 -14 5 -25 10 -25 6 0 10 11 10 25 0 14 -4 25 -10 25
-5 0 -10 -11 -10 -25z"/>
<path d="M8544 1315 c-7 -17 4 -37 17 -30 12 8 12 45 -1 45 -6 0 -13 -7 -16
-15z"/>
<path d="M3972 1308 c2 -13 8 -23 13 -23 6 0 11 10 13 23 2 15 -2 22 -13 22
-11 0 -15 -7 -13 -22z"/>
<path d="M4932 1308 c2 -13 8 -23 13 -23 6 0 11 10 13 23 2 15 -2 22 -13 22
-11 0 -15 -7 -13 -22z"/>
<path d="M5330 1320 c0 -5 5 -10 10 -10 6 0 10 5 10 10 0 6 -4 10 -10 10 -5 0
-10 -4 -10 -10z"/>
<path d="M5325 1260 c-3 -5 1 -10 9 -10 9 0 16 5 16 10 0 6 -4 10 -9 10 -6 0
-13 -4 -16 -10z"/>
<path d="M5690 1289 c0 -5 5 -7 10 -4 6 3 10 8 10 11 0 2 -4 4 -10 4 -5 0 -10
-5 -10 -11z"/>
<path d="M5842 1308 c2 -13 8 -23 13 -23 6 0 11 10 13 23 2 15 -2 22 -13 22
-11 0 -15 -7 -13 -22z"/>
<path d="M6380 1290 c0 -5 5 -10 10 -10 6 0 10 5 10 10 0 6 -4 10 -10 10 -5 0
-10 -4 -10 -10z"/>
<path d="M6712 1308 c2 -13 8 -23 13 -23 6 0 11 10 13 23 2 15 -2 22 -13 22
-11 0 -15 -7 -13 -22z"/>
<path d="M7450 1289 c0 -5 5 -7 10 -4 6 3 10 8 10 11 0 2 -4 4 -10 4 -5 0 -10
-5 -10 -11z"/>
<path d="M8854 1315 c-7 -17 4 -37 17 -30 12 8 12 45 -1 45 -6 0 -13 -7 -16
-15z"/>
<path d="M9600 1320 c0 -5 5 -10 10 -10 6 0 10 5 10 10 0 6 -4 10 -10 10 -5 0
-10 -4 -10 -10z"/>
<path d="M9595 1260 c-3 -5 1 -10 9 -10 9 0 16 5 16 10 0 6 -4 10 -9 10 -6 0
-13 -4 -16 -10z"/>
<path d="M9732 1308 c2 -13 8 -23 13 -23 6 0 11 10 13 23 2 15 -2 22 -13 22
-11 0 -15 -7 -13 -22z"/>
<path d="M9894 1315 c-7 -17 4 -37 17 -30 12 8 12 45 -1 45 -6 0 -13 -7 -16
-15z"/>
<path d="M10200 1289 c0 -5 5 -7 10 -4 6 3 10 8 10 11 0 2 -4 4 -10 4 -5 0
-10 -5 -10 -11z"/>
<path d="M4050 1105 c0 -14 5 -25 10 -25 6 0 10 11 10 25 0 14 -4 25 -10 25
-5 0 -10 -11 -10 -25z"/>
<path d="M4752 1108 c2 -13 8 -23 13 -23 6 0 11 10 13 23 2 15 -2 22 -13 22
-11 0 -15 -7 -13 -22z"/>
<path d="M5232 1108 c2 -13 8 -23 13 -23 6 0 11 10 13 23 2 15 -2 22 -13 22
-11 0 -15 -7 -13 -22z"/>
<path d="M5650 1089 c0 -5 5 -7 10 -4 6 3 10 8 10 11 0 2 -4 4 -10 4 -5 0 -10
-5 -10 -11z"/>
<path d="M20 750 l0 -180 495 0 495 0 0 180 0 180 -495 0 -495 0 0 -180z m620
5 c0 -30 -4 -55 -10 -55 -5 0 -10 25 -10 55 0 30 5 55 10 55 6 0 10 -25 10
-55z m-252 18 c3 -17 -3 -26 -22 -33 -14 -5 -26 -16 -26 -25 0 -8 -4 -15 -10
-15 -5 0 -10 23 -10 51 l0 50 33 -3 c24 -2 33 -8 35 -25z m32 -23 c0 -16 5
-30 10 -30 6 0 10 14 10 31 0 43 24 32 28 -13 3 -30 0 -36 -20 -40 -13 -2 -29
-3 -36 0 -14 4 -16 82 -2 82 6 0 10 -13 10 -30z m110 21 c0 -5 -7 -11 -15 -15
-8 -3 -15 -17 -15 -31 0 -14 -4 -25 -10 -25 -5 0 -10 18 -10 40 0 36 3 40 25
40 14 0 25 -4 25 -9z m68 -3 c18 -18 14 -56 -7 -67 -10 -6 -21 -7 -25 -4 -3 3
-6 -3 -6 -15 0 -12 -4 -22 -10 -22 -6 0 -10 27 -10 60 0 56 2 60 23 60 13 0
28 -5 35 -12z m110 0 c20 -20 14 -38 -14 -38 -15 0 -23 -4 -19 -10 4 -6 15 -8
26 -5 22 7 26 -10 4 -19 -23 -9 -45 4 -51 30 -10 41 27 69 54 42z"/>
<path d="M340 770 c0 -5 5 -10 10 -10 6 0 10 5 10 10 0 6 -4 10 -10 10 -5 0
-10 -4 -10 -10z"/>
<path d="M560 741 c0 -11 4 -22 9 -25 11 -7 23 22 15 35 -9 16 -24 10 -24 -10z"/>
<path d="M1020 750 l0 -180 890 0 890 0 0 180 0 180 -890 0 -890 0 0 -180z
m930 46 c0 -8 10 -16 23 -18 18 -2 23 -10 25 -40 2 -22 -1 -38 -7 -38 -6 0
-11 14 -11 30 0 20 -5 30 -15 30 -10 0 -15 -10 -15 -30 0 -16 -4 -30 -10 -30
-5 0 -10 25 -10 55 0 30 5 55 10 55 6 0 10 -6 10 -14z m230 -1 c0 -18 12 -19
28 -3 9 9 12 9 12 0 0 -7 5 -12 10 -12 6 0 10 7 10 15 0 8 7 15 15 15 8 0 15
-6 15 -14 0 -7 9 -16 20 -19 15 -4 20 -14 20 -41 0 -20 -4 -36 -10 -36 -5 0
-10 14 -10 30 0 17 -4 30 -10 30 -5 0 -10 -13 -10 -29 0 -22 -5 -30 -23 -33
-35 -7 -47 1 -47 33 0 16 -4 29 -10 29 -5 0 -10 -13 -10 -30 0 -16 -4 -30 -10
-30 -5 0 -10 25 -10 55 0 30 5 55 10 55 6 0 10 -7 10 -15z m-717 -27 l14 -33
7 33 c4 17 14 32 21 32 11 0 10 -10 -3 -50 -9 -27 -21 -50 -28 -50 -7 0 -19
21 -28 47 -19 55 -19 53 -6 53 5 0 16 -15 23 -32z m307 -7 c0 -24 5 -41 14
-44 20 -8 26 2 26 45 0 21 5 38 10 38 6 0 10 -20 10 -45 0 -52 -24 -74 -60
-55 -15 8 -20 21 -20 55 0 25 5 45 10 45 6 0 10 -18 10 -39z m-202 7 c20 -20
14 -38 -14 -38 -15 0 -23 -4 -19 -10 4 -6 15 -8 26 -5 22 7 26 -10 4 -19 -23
-9 -45 4 -51 30 -10 41 27 69 54 42z m96 -10 l7 -23 9 23 c5 12 14 22 20 22
12 0 8 -20 -15 -76 -15 -38 -33 -50 -48 -35 -8 8 -6 11 6 11 20 0 22 19 5 55
-14 31 -32 28 -36 -8 -5 -42 -22 -32 -22 13 0 39 1 40 34 40 26 0 35 -5 40
-22z m244 10 c18 -18 15 -68 -3 -68 -10 0 -15 10 -15 30 0 17 -4 30 -10 30 -5
0 -10 -13 -10 -30 0 -16 -4 -30 -10 -30 -5 0 -10 18 -10 40 0 35 3 40 23 40
13 0 28 -5 35 -12z m160 0 c20 -20 14 -38 -14 -38 -15 0 -23 -4 -19 -11 4 -6
13 -8 21 -5 16 6 19 -10 4 -19 -17 -10 -50 15 -50 38 0 24 17 47 35 47 6 0 16
-5 23 -12z m80 -29 c3 -31 0 -37 -20 -42 -26 -7 -54 15 -43 33 4 6 17 15 29
20 l21 9 -22 0 c-13 1 -23 6 -23 12 0 6 12 9 28 7 23 -3 27 -8 30 -39z m199
19 l10 -23 7 23 c7 20 26 31 26 15 0 -23 -36 -103 -48 -108 -20 -8 -30 4 -12
15 11 7 12 15 2 48 -14 47 -15 52 -4 52 5 0 13 -10 19 -22z"/>
<path d="M2220 741 c0 -11 5 -23 10 -26 6 -4 10 5 10 19 0 14 -4 26 -10 26 -5
0 -10 -9 -10 -19z"/>
<path d="M2110 719 c0 -5 5 -7 10 -4 6 3 10 8 10 11 0 2 -4 4 -10 4 -5 0 -10
-5 -10 -11z"/>
<path d="M2810 750 l0 -180 485 0 485 0 0 180 0 180 -485 0 -485 0 0 -180z
m208 48 c17 -17 15 -38 -5 -60 -14 -16 -15 -18 0 -18 9 0 19 -4 22 -10 4 -6
-10 -10 -35 -10 l-41 0 26 35 c27 35 27 59 0 48 -8 -3 -15 -1 -15 5 0 9 14 19
31 21 3 1 10 -4 17 -11z m93 -24 c10 -28 -3 -69 -25 -77 -22 -9 -46 19 -46 53
0 57 51 74 71 24z m342 21 c9 -8 13 -24 10 -37 -3 -15 2 -11 14 11 22 41 35
47 57 26 14 -15 18 -15 31 -1 20 19 44 10 56 -20 18 -48 -24 -99 -56 -68 -13
14 -17 14 -31 0 -12 -12 -20 -13 -35 -6 -10 6 -19 16 -20 23 0 9 -2 9 -6 -1
-7 -18 -39 -33 -57 -26 -23 9 -20 27 3 19 11 -3 22 -1 26 5 4 7 -2 14 -14 17
-24 6 -28 23 -6 23 8 0 15 7 15 16 0 11 -6 14 -20 9 -21 -7 -28 10 -7 18 20 9
25 8 40 -8z m-283 -45 c0 -27 -4 -50 -10 -50 -5 0 -10 15 -10 34 0 19 -5 36
-12 38 -15 5 -1 28 18 28 10 0 14 -13 14 -50z m102 12 c-15 -5 -16 -38 -2 -47
15 -9 2 -25 -14 -19 -17 7 -27 74 -14 91 8 10 14 9 26 -4 12 -12 13 -18 4 -21z
m78 -2 c12 -22 0 -55 -22 -63 -22 -7 -48 13 -48 36 0 45 50 64 70 27z"/>
<path d="M3066 765 c-6 -18 2 -45 15 -45 5 0 9 14 9 30 0 32 -14 40 -24 15z"/>
<path d="M3500 750 c0 -32 14 -40 24 -15 6 18 -2 45 -15 45 -5 0 -9 -13 -9
-30z"/>
<path d="M3576 765 c-6 -18 2 -45 15 -45 5 0 9 14 9 30 0 32 -14 40 -24 15z"/>
<path d="M3304 745 c-7 -17 4 -37 17 -30 12 8 12 45 -1 45 -6 0 -13 -7 -16
-15z"/>
<path d="M3790 750 l0 -180 3475 0 3475 0 0 180 0 180 -3475 0 -3475 0 0 -180z
m360 5 c0 -30 -4 -55 -10 -55 -5 0 -10 25 -10 55 0 30 5 55 10 55 6 0 10 -25
10 -55z m80 41 c0 -8 10 -16 23 -18 18 -2 23 -10 25 -40 2 -22 -1 -38 -7 -38
-6 0 -11 14 -11 31 0 38 -24 35 -28 -3 -2 -17 -11 -28 -25 -32 -28 -7 -35 1
-39 49 -3 36 -1 40 20 38 14 -2 22 3 22 12 0 8 5 15 10 15 6 0 10 -6 10 -14z
m200 -41 c0 -42 -3 -55 -15 -55 -12 0 -15 13 -15 55 0 42 3 55 15 55 12 0 15
-13 15 -55z m360 41 c0 -7 9 -16 20 -19 15 -4 20 -14 20 -41 0 -20 -4 -36 -10
-36 -5 0 -10 14 -10 30 0 17 -4 30 -10 30 -5 0 -10 -13 -10 -30 0 -20 -5 -30
-15 -30 -11 0 -15 11 -15 40 0 29 -4 40 -15 40 -11 0 -15 -11 -15 -40 0 -22
-4 -40 -10 -40 -5 0 -10 18 -10 39 0 27 -5 41 -17 47 -17 7 5 13 85 22 6 1 12
-4 12 -12z m249 -45 c2 -40 -1 -51 -14 -51 -10 0 -15 10 -15 31 0 38 -24 35
-28 -4 -5 -42 -22 -31 -22 14 0 40 1 41 30 37 22 -3 29 -1 26 8 -2 6 -2 15 1
18 12 12 19 -5 22 -53z m102 32 c0 -16 3 -22 6 -15 2 6 12 12 20 12 13 0 13
-3 3 -15 -10 -12 -10 -21 -2 -40 10 -21 9 -25 -3 -25 -8 0 -15 6 -15 13 0 9
-2 9 -8 0 -4 -7 -16 -12 -27 -12 -11 0 -29 -1 -39 -3 -10 -2 -21 3 -23 10 -3
7 1 10 11 6 21 -8 20 6 -1 21 -21 16 -10 45 17 45 23 0 27 -17 5 -22 -13 -2
-12 -6 5 -16 19 -11 20 -10 20 28 0 29 4 40 15 40 10 0 15 -10 16 -27z m209
17 c0 -5 -4 -10 -9 -10 -5 0 -9 -6 -8 -12 1 -43 -4 -78 -13 -78 -5 0 -10 14
-10 30 0 17 -4 30 -9 30 -5 0 -4 11 2 25 12 24 47 35 47 15z m60 -4 c0 -7 9
-16 20 -19 15 -4 20 -14 20 -41 0 -20 -4 -36 -10 -36 -5 0 -10 14 -10 30 0 17
-4 30 -10 30 -5 0 -10 -13 -10 -30 0 -20 -5 -30 -15 -30 -12 0 -15 13 -15 55
0 42 3 55 15 55 8 0 15 -6 15 -14z m230 -8 c1 -21 2 -22 14 -6 19 25 36 3 29
-38 -4 -22 -2 -34 6 -34 7 0 11 19 11 50 0 28 5 50 10 50 6 0 10 -6 10 -14 0
-8 10 -16 23 -18 18 -2 23 -10 25 -40 2 -22 -1 -38 -7 -38 -6 0 -11 14 -11 30
0 20 -5 30 -15 30 -10 0 -15 -10 -15 -29 0 -23 -5 -30 -25 -33 -28 -6 -41 6
-48 42 -4 21 -4 20 -6 -7 -1 -22 -6 -33 -16 -33 -12 0 -15 13 -15 55 0 42 3
55 15 55 9 0 15 -9 15 -22z m343 9 c-8 -13 -9 -19 -11 -64 -3 -44 -32 -46 -32
-3 0 17 -4 30 -10 30 -5 0 -10 -13 -10 -30 0 -16 -4 -30 -10 -30 -5 0 -10 14
-10 30 0 17 -4 30 -10 30 -5 0 -10 -7 -10 -15 0 -8 -9 -15 -21 -15 -11 0 -18
-4 -14 -10 3 -5 12 -7 20 -3 8 3 15 1 15 -5 0 -13 -20 -20 -42 -14 -23 6 -32
36 -18 63 10 17 18 20 42 15 24 -5 31 -2 35 13 4 15 14 19 49 19 31 0 42 -3
37 -11z m309 -46 c-2 -28 -8 -51 -14 -51 -9 0 -10 86 -1 103 11 19 18 -6 15
-52z m137 0 c1 -31 -2 -51 -9 -51 -6 0 -10 23 -10 56 0 68 16 64 19 -5z m571
5 c0 -44 -3 -55 -19 -59 -22 -5 -51 9 -51 27 0 9 -9 12 -25 8 -14 -2 -22 -8
-20 -13 3 -4 12 -6 20 -2 8 3 15 1 15 -5 0 -16 -27 -21 -45 -8 -23 17 -17 70
9 75 11 2 25 -4 32 -13 10 -14 13 -15 24 -1 7 8 19 15 26 15 8 0 14 7 14 15 0
8 5 15 10 15 6 0 10 -24 10 -54z m100 44 c0 -5 -4 -10 -9 -10 -5 0 -9 -6 -8
-12 1 -43 -4 -78 -13 -78 -5 0 -10 14 -10 30 0 17 -4 30 -9 30 -5 0 -4 11 2
25 12 24 47 35 47 15z m-3200 -20 c0 -13 7 -20 20 -20 13 0 20 7 20 20 0 11 5
20 10 20 6 0 10 -22 10 -50 0 -27 -4 -50 -10 -50 -5 0 -10 9 -10 20 0 13 -7
20 -20 20 -13 0 -20 -7 -20 -20 0 -11 -4 -20 -10 -20 -5 0 -10 23 -10 50 0 28
5 50 10 50 6 0 10 -9 10 -20z m703 -37 c-6 -33 -4 -35 16 -28 14 4 21 2 21 -7
0 -14 -37 -17 -58 -4 -7 4 -12 18 -12 32 0 15 -6 24 -15 24 -10 0 -15 -10 -15
-30 0 -20 -5 -30 -15 -30 -8 0 -15 8 -15 19 0 14 -6 17 -25 13 -14 -2 -22 -8
-20 -13 3 -4 12 -6 20 -2 8 3 15 1 15 -5 0 -16 -27 -21 -45 -8 -23 17 -17 70
9 75 11 2 25 -4 32 -13 10 -15 12 -15 18 -1 3 9 18 15 36 15 16 0 30 5 30 11
0 8 4 8 14 0 10 -9 13 -23 9 -48z m1590 36 c15 1 27 -3 27 -9 0 -5 -7 -10 -16
-10 -12 0 -11 -5 7 -20 23 -19 23 -21 6 -34 -10 -7 -32 -13 -50 -12 -28 1 -32
5 -35 34 -3 27 -7 32 -28 32 -21 0 -25 -4 -22 -22 2 -13 8 -23 15 -23 19 0 25
-12 8 -19 -9 -3 -24 3 -35 14 -21 21 -77 29 -65 10 4 -6 15 -8 26 -5 22 7 26
-10 4 -19 -23 -9 -45 4 -51 30 -11 43 30 71 56 39 11 -13 14 -13 24 -1 12 16
61 26 86 18 8 -3 27 -4 43 -3z m-2154 -18 c12 -21 5 -31 -21 -31 -11 0 -17 -4
-13 -10 3 -5 12 -7 20 -3 8 3 15 1 15 -5 0 -15 -22 -21 -42 -10 -18 9 -25 58
-11 71 13 13 42 7 52 -12z m69 -22 c3 -37 -14 -52 -45 -42 -21 7 -15 43 10 53
l22 9 -23 0 c-14 1 -20 5 -17 12 4 5 17 9 28 7 17 -2 23 -11 25 -39z m280 0
c3 -31 0 -37 -20 -42 -26 -7 -54 15 -43 33 4 6 17 15 29 20 l21 9 -22 0 c-13
1 -23 6 -23 12 0 6 12 9 28 7 23 -3 27 -8 30 -39z m252 25 c0 -8 -4 -12 -10
-9 -5 3 -10 10 -10 16 0 5 5 9 10 9 6 0 10 -7 10 -16z m268 -11 c3 -18 -2 -23
-18 -23 -12 0 -19 -4 -15 -10 3 -5 12 -7 20 -3 8 3 15 1 15 -5 0 -13 -20 -20
-42 -14 -41 10 -27 86 15 80 14 -2 23 -11 25 -25z m370 15 c32 -32 -2 -87 -40
-67 -18 10 -25 58 -11 72 10 11 38 8 51 -5z m250 -15 c3 -18 -2 -23 -18 -23
-12 0 -18 -5 -15 -10 4 -7 14 -6 27 2 11 7 30 19 42 25 l21 13 -22 0 c-13 0
-23 5 -23 11 0 6 12 9 28 7 23 -3 27 -8 30 -39 3 -31 -1 -37 -19 -42 -13 -4
-28 -2 -34 3 -6 5 -17 5 -24 1 -36 -23 -72 20 -51 59 15 28 54 23 58 -7z m832
17 c0 -5 -8 -10 -17 -10 -17 -1 -17 -1 0 -14 21 -16 22 -42 2 -50 -18 -7 -45
3 -45 16 0 6 6 8 14 5 24 -9 26 5 4 23 -12 9 -18 22 -14 28 9 15 56 16 56 2z
m148 -32 c2 -22 -1 -38 -7 -38 -6 0 -11 14 -11 30 0 17 -4 30 -10 30 -5 0 -10
-13 -10 -30 0 -20 -5 -30 -15 -30 -10 0 -15 10 -15 33 0 41 7 49 40 45 21 -3
25 -9 28 -40z m72 33 c0 -5 -9 -11 -21 -14 -25 -7 -22 -43 4 -41 9 1 17 -2 17
-7 0 -15 -20 -20 -40 -9 -22 12 -27 49 -8 68 14 14 48 16 48 3z m60 0 c0 -5
-7 -11 -15 -15 -8 -3 -15 -17 -15 -31 0 -14 -4 -25 -10 -25 -5 0 -10 18 -10
40 0 36 3 40 25 40 14 0 25 -4 25 -9z m68 -18 c3 -18 -2 -23 -18 -23 -12 0
-19 -4 -15 -10 3 -5 12 -7 20 -3 8 3 15 1 15 -5 0 -13 -20 -20 -42 -14 -41 10
-27 86 15 80 14 -2 23 -11 25 -25z m70 -14 c3 -37 -14 -52 -45 -42 -21 7 -15
43 10 53 l22 9 -23 0 c-14 1 -20 5 -17 12 4 5 17 9 28 7 17 -2 23 -11 25 -39z
m67 31 c3 -5 -4 -10 -16 -10 -21 0 -21 0 2 -20 23 -19 23 -21 6 -34 -20 -15
-47 -11 -47 6 0 6 7 8 15 4 20 -7 19 4 -2 19 -9 7 -14 19 -10 29 7 18 42 22
52 6z m315 -5 c15 -18 6 -61 -15 -69 -37 -14 -65 26 -45 64 13 24 42 26 60 5z
m70 6 c0 -5 -7 -11 -15 -15 -8 -3 -15 -17 -15 -31 0 -14 -4 -25 -10 -25 -5 0
-10 18 -10 40 0 36 3 40 25 40 14 0 25 -4 25 -9z m98 -3 c9 -9 12 -9 12 0 0
21 17 13 24 -10 7 -23 7 -23 17 -2 18 35 99 25 99 -12 0 -8 -11 -14 -26 -14
-15 0 -23 -4 -19 -11 4 -6 13 -8 21 -5 16 6 19 -10 4 -19 -16 -10 -50 15 -51
38 0 20 -2 19 -11 -5 -11 -32 -34 -37 -42 -10 -5 14 -14 17 -36 14 -16 -2 -27
-9 -24 -14 3 -5 12 -7 20 -4 16 6 19 -10 4 -19 -17 -10 -50 15 -50 38 0 24 17
47 35 47 6 0 16 -5 23 -12z m236 -10 l7 -23 9 21 c7 17 16 21 47 19 21 -1 41
-3 46 -4 4 0 7 -14 7 -31 0 -56 -69 -59 -71 -2 0 24 -2 23 -15 -13 -19 -53
-40 -73 -56 -57 -9 9 -8 12 5 12 20 0 22 19 5 55 -16 35 -38 32 -38 -5 0 -16
-4 -30 -10 -30 -5 0 -10 18 -10 40 0 39 1 40 34 40 26 0 35 -5 40 -22z m194
-20 c2 -22 -1 -38 -7 -38 -6 0 -11 14 -11 31 0 38 -24 35 -28 -4 -5 -42 -22
-32 -22 14 0 39 1 40 33 37 29 -3 32 -6 35 -40z m70 30 c20 -20 14 -38 -14
-38 -15 0 -23 -4 -19 -10 4 -6 15 -8 26 -5 22 7 26 -10 4 -19 -23 -9 -45 4
-51 30 -10 41 27 69 54 42z m42 -64 c0 -8 -4 -12 -10 -9 -5 3 -10 10 -10 16 0
5 5 9 10 9 6 0 10 -7 10 -16z"/>
<path d="M4190 735 c0 -14 5 -25 10 -25 6 0 10 11 10 25 0 14 -4 25 -10 25 -5
0 -10 -11 -10 -25z"/>
<path d="M6954 745 c-7 -17 4 -37 17 -30 12 8 12 45 -1 45 -6 0 -13 -7 -16
-15z"/>
<path d="M6150 736 c0 -18 5 -23 25 -23 30 0 31 1 5 27 -26 26 -30 25 -30 -4z"/>
<path d="M4070 719 c0 -5 5 -7 10 -4 6 3 10 8 10 11 0 2 -4 4 -10 4 -5 0 -10
-5 -10 -11z"/>
<path d="M4350 719 c0 -5 5 -7 10 -4 6 3 10 8 10 11 0 2 -4 4 -10 4 -5 0 -10
-5 -10 -11z"/>
<path d="M5242 739 c1 -13 8 -23 13 -21 15 3 12 35 -3 40 -9 3 -13 -3 -10 -19z"/>
<path d="M5560 719 c0 -5 5 -7 10 -4 6 3 10 8 10 11 0 2 -4 4 -10 4 -5 0 -10
-5 -10 -11z"/>
<path d="M6740 719 c0 -5 5 -7 10 -4 6 3 10 8 10 11 0 2 -4 4 -10 4 -5 0 -10
-5 -10 -11z"/>
<path d="M7120 740 c0 -11 5 -20 10 -20 6 0 10 9 10 20 0 11 -4 20 -10 20 -5
0 -10 -9 -10 -20z"/>
<path d="M7632 738 c2 -13 8 -23 13 -23 6 0 11 10 13 23 2 15 -2 22 -13 22
-11 0 -15 -7 -13 -22z"/>
<path d="M20 280 l0 -280 495 0 495 0 0 280 0 280 -495 0 -495 0 0 -280z m295
118 l14 -33 13 33 c19 49 38 41 38 -18 0 -51 -19 -72 -21 -22 l-1 27 -11 -27
c-13 -34 -25 -35 -37 -5 l-9 22 0 -22 c-2 -47 -21 -21 -21 27 0 58 15 65 35
18z m133 0 c7 -7 12 -25 12 -41 0 -26 -3 -28 -32 -25 -40 4 -44 27 -8 45 l25
13 -23 0 c-13 0 -20 4 -17 10 8 14 28 13 43 -2z m72 2 c0 -4 -7 -10 -15 -14
-8 -3 -15 -17 -15 -31 0 -14 -4 -25 -10 -25 -10 0 -15 62 -5 71 8 8 45 8 45
-1z m70 -10 c15 -28 -4 -62 -33 -58 -22 3 -34 35 -23 64 8 21 44 17 56 -6z
m80 0 c15 -28 -4 -62 -33 -58 -22 3 -34 35 -23 64 8 21 44 17 56 -6z m78 8
c14 -14 16 -68 2 -68 -5 0 -10 14 -10 30 0 20 -5 30 -15 30 -10 0 -15 -10 -15
-30 0 -16 -4 -30 -10 -30 -5 0 -10 18 -10 40 0 35 3 40 23 40 13 0 28 -5 35
-12z"/>
<path d="M415 350 c4 -6 11 -8 16 -5 14 9 11 15 -7 15 -8 0 -12 -5 -9 -10z"/>
<path d="M546 381 c-9 -14 5 -42 18 -38 15 5 14 39 -1 44 -6 2 -14 0 -17 -6z"/>
<path d="M626 381 c-9 -14 5 -42 18 -38 15 5 14 39 -1 44 -6 2 -14 0 -17 -6z"/>
<path d="M1020 280 l0 -280 890 0 890 0 0 280 0 280 -890 0 -890 0 0 -280z
m990 105 c0 -54 0 -55 -30 -55 -23 0 -31 5 -36 25 -7 27 10 55 32 55 8 0 14 7
14 15 0 8 5 15 10 15 6 0 10 -25 10 -55z m-389 5 c12 0 19 7 19 20 0 11 5 20
10 20 6 0 10 -22 10 -50 0 -27 -4 -50 -10 -50 -5 0 -10 9 -10 20 0 29 -37 27
-43 -2 -2 -13 -4 2 -4 32 0 30 2 45 4 33 3 -15 12 -23 24 -23z m117 -22 c3
-36 2 -38 -27 -38 -38 0 -43 31 -8 48 l22 11 -23 0 c-14 1 -20 5 -17 12 4 5
17 9 28 7 17 -2 23 -11 25 -40z m59 25 c-2 -10 -8 -26 -12 -35 -10 -26 10 -22
39 7 17 17 20 25 11 25 -8 0 -15 5 -15 11 0 6 10 9 23 7 17 -2 23 -10 25 -40
l3 -36 -60 -1 c-34 0 -61 2 -61 5 0 3 7 16 16 29 15 23 15 25 0 25 -9 0 -16 5
-16 10 0 6 12 10 26 10 20 0 25 -4 21 -17z m143 7 c0 -5 -7 -10 -15 -10 -10 0
-15 -10 -15 -30 0 -16 -4 -30 -10 -30 -5 0 -10 18 -10 40 0 36 3 40 25 40 14
0 25 -4 25 -10z m150 -10 c15 -28 -4 -62 -33 -58 -22 3 -34 35 -23 64 8 21 44
17 56 -6z m40 -21 c0 -37 18 -38 26 -1 10 47 12 48 13 5 1 -41 0 -43 -29 -43
-28 0 -30 2 -30 41 0 24 4 38 10 34 6 -3 10 -19 10 -36z m110 31 c0 -5 -8 -10
-17 -10 -17 -1 -17 -1 0 -14 27 -21 22 -46 -10 -45 -17 1 -21 3 -10 6 21 6 22
12 0 28 -21 16 -10 45 17 45 11 0 20 -4 20 -10z"/>
<path d="M1962 368 c5 -32 28 -35 28 -4 0 17 -5 26 -16 26 -10 0 -14 -7 -12
-22z"/>
<path d="M1700 349 c0 -5 5 -7 10 -4 6 3 10 8 10 11 0 2 -4 4 -10 4 -5 0 -10
-5 -10 -11z"/>
<path d="M1830 350 c0 -5 5 -10 10 -10 6 0 10 5 10 10 0 6 -4 10 -10 10 -5 0
-10 -4 -10 -10z"/>
<path d="M2046 381 c-9 -14 5 -42 18 -38 15 5 14 39 -1 44 -6 2 -14 0 -17 -6z"/>
<path d="M2810 280 l0 -280 485 0 485 0 0 280 0 280 -485 0 -485 0 0 -280z
m730 105 c0 -54 0 -55 -30 -55 -23 0 -31 5 -36 25 -7 27 10 55 32 55 8 0 14 7
14 15 0 8 5 15 10 15 6 0 10 -25 10 -55z m-435 -5 c0 -42 -2 -45 -27 -48 -16
-2 -28 1 -28 6 0 6 8 8 19 5 10 -3 22 0 26 7 4 7 -1 14 -14 17 -24 6 -28 23
-6 23 8 0 15 7 15 16 0 11 -6 14 -20 9 -12 -4 -20 -2 -20 5 0 6 12 10 28 8 25
-3 27 -6 27 -48z m80 0 c0 -39 -3 -45 -22 -48 -32 -5 -51 37 -35 74 9 18 19
24 35 22 19 -3 22 -9 22 -48z m65 0 c0 -27 -4 -50 -10 -50 -5 0 -10 15 -10 34
0 19 -6 37 -12 39 -10 4 -9 8 2 16 26 18 30 13 30 -39z m118 18 c7 -7 12 -25
12 -41 0 -26 -3 -28 -32 -25 -40 4 -44 27 -8 45 l25 13 -23 0 c-13 0 -20 4
-17 10 8 14 28 13 43 -2z m90 -30 c2 -22 -1 -38 -7 -38 -6 0 -11 14 -11 30 0
20 -5 30 -15 30 -10 0 -15 -10 -15 -30 0 -16 -4 -30 -10 -30 -11 0 -14 63 -3
74 4 4 19 6 33 4 21 -3 25 -9 28 -40z m-338 -141 c0 -7 10 -17 23 -22 15 -7
23 -20 25 -42 2 -19 -1 -33 -7 -33 -6 0 -11 14 -11 30 0 20 -5 30 -15 30 -10
0 -15 -10 -15 -30 0 -16 -4 -30 -10 -30 -5 0 -10 25 -10 55 0 30 5 55 10 55 6
0 10 -6 10 -13z m190 -1 c0 -8 10 -16 23 -18 18 -2 23 -10 25 -40 2 -22 -1
-38 -7 -38 -6 0 -11 14 -11 30 0 20 -5 30 -15 30 -10 0 -15 -10 -15 -30 0 -16
-4 -30 -10 -30 -5 0 -10 25 -10 55 0 30 5 55 10 55 6 0 10 -6 10 -14z m-110
-56 c0 -22 -4 -40 -10 -40 -11 0 -14 63 -3 73 11 12 13 8 13 -33z m80 20 c0
-11 -7 -23 -15 -26 -8 -4 -15 -10 -15 -15 0 -5 7 -9 15 -9 23 0 18 -38 -5 -45
-32 -10 -49 11 -43 53 7 57 11 62 38 62 18 0 25 -5 25 -20z m148 8 c20 -20 14
-36 -15 -40 l-28 -4 25 -11 25 -12 -27 0 c-31 -1 -45 27 -28 59 12 23 30 26
48 8z m72 2 c0 -5 -7 -10 -15 -10 -10 0 -15 -10 -15 -30 0 -16 -4 -30 -10 -30
-5 0 -10 18 -10 40 0 36 3 40 25 40 14 0 25 -4 25 -10z"/>
<path d="M3492 368 c5 -32 28 -35 28 -4 0 17 -5 26 -16 26 -10 0 -14 -7 -12
-22z"/>
<path d="M3144 406 c-8 -22 -1 -59 14 -64 8 -2 12 9 12 37 0 40 -15 55 -26 27z"/>
<path d="M3335 350 c4 -6 11 -8 16 -5 14 9 11 15 -7 15 -8 0 -12 -5 -9 -10z"/>
<path d="M3240 180 c0 -5 5 -10 10 -10 6 0 10 5 10 10 0 6 -4 10 -10 10 -5 0
-10 -4 -10 -10z"/>
<path d="M3230 120 c0 -5 7 -10 15 -10 8 0 15 5 15 10 0 6 -7 10 -15 10 -8 0
-15 -4 -15 -10z"/>
<path d="M3398 183 c7 -3 16 -2 19 1 4 3 -2 6 -13 5 -11 0 -14 -3 -6 -6z"/>
<path d="M3790 280 l0 -280 3475 0 3475 0 0 280 0 280 -3475 0 -3475 0 0 -280z
m360 105 c0 -30 -4 -55 -10 -55 -5 0 -10 25 -10 55 0 30 5 55 10 55 6 0 10
-25 10 -55z m80 41 c0 -8 10 -16 23 -18 18 -2 23 -10 25 -40 2 -22 -1 -38 -7
-38 -6 0 -11 14 -11 30 0 20 -5 30 -15 30 -10 0 -15 -10 -15 -30 0 -27 -3 -30
-30 -30 -26 0 -30 4 -31 30 -1 17 -2 36 -3 43 -1 6 6 12 14 12 11 0 14 -9 12
-37 -2 -23 1 -38 7 -38 6 0 11 21 11 50 0 28 5 50 10 50 6 0 10 -6 10 -14z
m770 4 c0 -5 -4 -10 -9 -10 -5 0 -9 -6 -8 -12 1 -42 -4 -78 -12 -78 -13 0 -20
72 -9 93 9 18 38 24 38 7z m1060 -45 c0 -54 0 -55 -30 -55 -23 0 -31 5 -36 25
-7 27 10 55 32 55 8 0 14 7 14 15 0 8 5 15 10 15 6 0 10 -25 10 -55z m1580 0
c0 -30 -4 -55 -10 -55 -5 0 -10 25 -10 55 0 30 5 55 10 55 6 0 10 -25 10 -55z
m79 5 c4 0 12 5 19 12 9 9 12 9 12 1 0 -7 -5 -15 -11 -18 -7 -5 -5 -15 6 -31
16 -25 8 -33 -13 -12 -10 10 -15 10 -22 -2 -7 -10 -9 4 -8 45 0 33 3 48 5 33
2 -16 8 -28 12 -28z m141 -5 c0 -30 -4 -55 -10 -55 -5 0 -10 25 -10 55 0 30 5
55 10 55 6 0 10 -25 10 -55z m323 23 c18 -2 22 -10 22 -38 0 -31 -3 -35 -27
-38 -28 -3 -28 -3 -27 55 1 32 3 50 6 41 2 -9 14 -18 26 -20z m268 18 c-9 -10
-9 -16 -1 -21 7 -4 14 2 17 14 5 21 33 30 33 11 0 -5 -6 -10 -12 -10 -9 0 -8
-4 2 -11 11 -8 12 -12 3 -16 -7 -2 -13 -18 -13 -34 0 -16 -4 -29 -10 -29 -5 0
-10 14 -10 30 0 17 -4 30 -10 30 -5 0 -10 -13 -10 -30 0 -43 -17 -37 -23 8 -5
43 7 72 30 72 12 0 13 -3 4 -14z m379 -41 c0 -52 -1 -55 -25 -55 -13 0 -28 8
-33 18 -12 22 3 62 23 62 8 0 15 7 15 15 0 8 5 15 10 15 6 0 10 -25 10 -55z
m-4930 25 c0 -13 7 -20 20 -20 13 0 20 7 20 20 0 11 5 20 10 20 6 0 10 -22 10
-50 0 -27 -4 -50 -10 -50 -5 0 -10 9 -10 20 0 13 -7 20 -20 20 -13 0 -20 -7
-20 -20 0 -11 -4 -20 -10 -20 -5 0 -10 23 -10 50 0 28 5 50 10 50 6 0 10 -9
10 -20z m2242 -33 c-2 -22 1 -37 7 -37 6 0 11 13 11 29 0 17 5 33 10 36 6 4
10 -10 10 -34 0 -39 -2 -41 -29 -41 -26 0 -29 4 -34 38 -5 42 -1 55 16 49 7
-2 11 -19 9 -40z m1878 22 c0 -5 -4 -9 -10 -9 -14 0 -12 -47 3 -54 6 -3 3 -5
-8 -3 -22 2 -39 59 -22 76 11 11 37 4 37 -10z m652 -22 c-4 -42 15 -51 20 -11
4 38 35 55 53 30 17 -23 11 -36 -16 -36 -12 0 -17 -4 -14 -11 4 -6 13 -8 21
-5 8 3 14 1 14 -4 0 -5 -22 -9 -50 -8 -48 0 -50 1 -50 29 0 24 -4 29 -25 29
-30 0 -35 -33 -7 -50 15 -9 14 -10 -8 -8 -20 2 -26 9 -28 35 -2 24 1 33 17 38
12 3 25 4 30 0 5 -3 13 -1 16 5 14 23 30 2 27 -33z m-4634 5 c3 -17 -2 -22
-18 -22 -12 0 -18 -4 -15 -11 4 -6 13 -8 21 -5 8 3 14 1 14 -5 0 -6 -12 -9
-27 -7 -22 2 -29 9 -31 32 -6 47 50 65 56 18z m70 -14 c3 -36 2 -38 -27 -38
-38 0 -43 31 -8 48 17 8 18 11 5 11 -10 1 -18 6 -18 12 0 6 10 9 23 7 18 -2
23 -10 25 -40z m236 20 l7 -23 9 23 c5 12 12 22 15 22 3 0 10 -10 15 -22 l9
-23 7 23 c3 12 11 22 16 22 5 0 7 -8 4 -17 -2 -10 -7 -28 -11 -40 -8 -29 -23
-29 -34 -1 l-8 23 -7 -23 c-4 -12 -11 -22 -16 -22 -8 0 -11 8 -26 63 -3 9 -1
17 4 17 5 0 13 -10 16 -22z m144 -20 c3 -35 1 -38 -22 -38 -35 0 -43 20 -16
42 17 14 19 18 6 18 -9 0 -16 5 -16 11 0 6 10 9 23 7 18 -2 23 -10 25 -40z
m72 32 c0 -5 -7 -10 -15 -10 -10 0 -15 -10 -15 -30 0 -16 -4 -30 -10 -30 -5 0
-10 18 -10 40 0 36 3 40 25 40 14 0 25 -4 25 -10z m68 -32 c2 -22 -1 -38 -7
-38 -6 0 -11 14 -11 30 0 40 -17 38 -29 -2 l-9 -33 -1 43 c-1 42 0 43 27 40
23 -3 27 -8 30 -40z m42 -4 c0 -19 -4 -34 -10 -34 -5 0 -10 18 -10 41 0 24 4
38 10 34 6 -3 10 -22 10 -41z m78 4 c2 -22 -1 -38 -7 -38 -6 0 -11 14 -11 30
0 40 -17 38 -29 -2 l-9 -33 -1 43 c-1 42 0 43 27 40 23 -3 27 -8 30 -40z m76
20 c-3 -13 -11 -24 -15 -26 -15 -6 -10 -22 6 -22 21 0 19 -27 -4 -40 -33 -17
-49 -3 -47 43 3 54 11 67 42 67 22 0 24 -3 18 -22z m104 13 c8 -5 12 -21 10
-37 -2 -23 -9 -30 -30 -32 -22 -3 -29 2 -34 22 -10 41 21 68 54 47z m160 -3
c18 -18 14 -38 -8 -38 -27 0 -25 -17 3 -23 15 -4 12 -5 -8 -4 -23 2 -31 7 -33
25 -7 46 18 68 46 40z m130 -30 c2 -22 -1 -38 -7 -38 -6 0 -11 14 -11 30 0 17
-4 30 -10 30 -5 0 -10 -13 -10 -30 0 -16 -4 -30 -10 -30 -5 0 -10 14 -10 30 0
20 -5 30 -15 30 -10 0 -15 -10 -15 -30 0 -16 -4 -30 -10 -30 -11 0 -14 63 -3
73 3 4 27 6 52 5 45 -3 46 -3 49 -40z m70 30 c18 -18 14 -38 -8 -38 -27 0 -25
-17 3 -23 15 -4 12 -5 -8 -4 -23 2 -31 7 -33 25 -7 46 18 68 46 40z m72 2 c0
-4 -7 -10 -15 -14 -8 -3 -15 -17 -15 -31 0 -14 -4 -25 -10 -25 -10 0 -15 62
-5 71 8 8 45 8 45 -1z m64 -12 c-3 -13 -11 -24 -15 -26 -15 -6 -10 -22 6 -22
23 0 18 -37 -6 -43 -39 -10 -49 1 -43 47 9 62 11 66 39 66 23 0 25 -3 19 -22z
m74 -6 c3 -17 -2 -22 -18 -22 -12 0 -18 -4 -15 -11 4 -6 13 -8 21 -5 8 3 14 1
14 -5 0 -6 -12 -9 -27 -7 -22 2 -29 9 -31 32 -6 47 50 65 56 18z m80 -14 c2
-22 -1 -38 -7 -38 -6 0 -11 14 -11 30 0 40 -17 38 -29 -2 l-9 -33 -1 43 c-1
42 0 43 27 40 23 -3 27 -8 30 -40z m99 22 c7 -26 19 -25 28 3 4 13 8 17 12 10
2 -7 -3 -33 -12 -57 -17 -44 -39 -64 -50 -46 -4 6 1 10 9 10 19 0 20 18 3 57
-10 26 -15 29 -35 22 -30 -11 -26 -38 8 -52 9 -4 4 -6 -10 -4 -26 2 -38 32
-26 63 9 23 67 18 73 -6z m143 10 c0 -5 -6 -10 -14 -10 -32 0 -29 -44 2 -54
10 -2 6 -4 -8 -3 -26 2 -38 32 -26 63 6 16 46 19 46 4z m70 -4 c6 -8 10 -25 8
-38 -2 -18 -9 -23 -33 -23 -24 0 -31 5 -33 23 -4 25 13 52 33 52 7 0 18 -7 25
-14z m88 -28 c2 -22 -1 -38 -7 -38 -6 0 -11 14 -11 30 0 20 -5 30 -15 30 -10
0 -15 -10 -15 -30 0 -16 -4 -30 -10 -30 -11 0 -14 63 -3 74 4 4 19 6 33 4 21
-3 25 -9 28 -40z m122 -4 c0 -19 -4 -34 -10 -34 -5 0 -10 18 -10 41 0 24 4 38
10 34 6 -3 10 -22 10 -41z m160 26 c15 -28 -4 -62 -33 -58 -22 3 -34 35 -23
64 8 21 44 17 56 -6z m77 -25 c1 -34 0 -36 -5 -11 -10 41 -32 46 -32 7 0 -17
-4 -31 -10 -31 -5 0 -10 18 -10 41 0 38 1 40 28 37 24 -3 27 -7 29 -43z m73
35 c0 -5 -8 -10 -17 -10 -17 -1 -17 -1 0 -14 27 -21 22 -46 -10 -45 -17 1 -21
3 -10 6 21 6 22 12 0 28 -21 16 -10 45 17 45 11 0 20 -4 20 -10z m40 0 c0 -5
-4 -10 -10 -10 -5 0 -10 5 -10 10 0 6 5 10 10 10 6 0 10 -4 10 -10z m98 -2
c18 -18 14 -38 -8 -38 -27 0 -25 -17 3 -23 15 -4 12 -5 -8 -4 -23 2 -31 7 -33
25 -7 46 18 68 46 40z m40 -15 l10 -28 11 29 c6 16 14 26 17 23 10 -9 -17 -78
-29 -74 -13 4 -39 77 -27 77 4 0 13 -12 18 -27z m110 -1 c3 -17 -2 -22 -18
-22 -12 0 -18 -4 -15 -11 4 -6 13 -8 21 -5 8 3 14 1 14 -5 0 -6 -12 -9 -27 -7
-22 2 -29 9 -31 32 -6 47 50 65 56 18z m88 2 l7 -27 14 27 c8 15 17 25 20 23
9 -9 -27 -105 -42 -110 -20 -8 -27 4 -10 17 13 9 14 17 4 44 -14 41 -36 41
-48 0 l-9 -33 -1 40 c-1 38 1 41 29 43 25 2 31 -2 36 -24z m114 11 c7 -9 10
-25 6 -41 -5 -20 -12 -25 -34 -22 -21 2 -28 9 -30 32 -5 42 32 62 58 31z m78
3 c14 -14 16 -68 2 -68 -5 0 -10 14 -10 30 0 20 -5 30 -15 30 -10 0 -15 -10
-15 -30 0 -16 -4 -30 -10 -30 -5 0 -10 18 -10 40 0 35 3 40 23 40 13 0 28 -5
35 -12z m81 -7 c12 -21 5 -31 -21 -31 -11 0 -16 -5 -13 -11 4 -6 13 -8 21 -5
8 3 14 1 14 -5 0 -6 -12 -9 -27 -7 -20 2 -29 9 -31 26 -7 44 38 70 57 33z m71
-21 c0 -22 -4 -40 -10 -40 -11 0 -14 63 -3 73 11 12 13 8 13 -33z m70 30 c0
-5 -8 -10 -17 -10 -17 -1 -17 -1 0 -14 27 -21 22 -46 -10 -45 -17 1 -21 3 -10
6 21 6 22 12 0 28 -21 16 -10 45 17 45 11 0 20 -4 20 -10z m158 -33 c2 -21 -1
-37 -7 -37 -6 0 -11 14 -11 31 0 39 -22 34 -31 -7 l-7 -29 -1 33 c-1 43 -31
45 -31 2 0 -16 -4 -30 -10 -30 -5 0 -10 18 -10 40 l0 40 53 -3 52 -2 3 -38z
m70 34 c8 -5 12 -21 10 -37 -2 -23 -9 -30 -30 -32 -22 -3 -29 2 -34 22 -10 41
21 68 54 47z m72 -2 c0 -5 -4 -9 -10 -9 -5 0 -14 -15 -19 -32 l-9 -33 -1 40
c-1 34 2 41 19 42 11 1 20 -2 20 -8z m69 -8 c12 -21 5 -31 -21 -31 -11 0 -16
-5 -13 -11 4 -6 13 -8 21 -5 8 3 14 1 14 -5 0 -6 -12 -9 -27 -7 -20 2 -29 9
-31 26 -7 44 38 70 57 33z m111 -21 c0 -22 -4 -40 -10 -40 -5 0 -10 18 -10 40
0 22 5 40 10 40 6 0 10 -18 10 -40z m138 28 c20 -20 14 -36 -15 -40 l-28 -4
25 -11 25 -12 -27 0 c-31 -1 -45 27 -28 59 12 23 30 26 48 8z m73 -15 l11 -28
10 28 c17 48 27 29 11 -20 -17 -52 -38 -81 -50 -69 -4 4 -1 11 7 16 11 7 12
15 2 48 -13 44 -14 52 -7 52 3 0 10 -12 16 -27z m199 7 c15 -28 -4 -62 -33
-58 -22 3 -34 35 -23 64 8 21 44 17 56 -6z m188 8 c18 -18 14 -38 -8 -38 -27
0 -25 -17 3 -23 15 -4 12 -5 -8 -4 -23 2 -31 7 -33 25 -7 46 18 68 46 40z
m110 0 c7 -7 12 -25 12 -41 0 -26 -3 -28 -32 -25 -40 4 -44 27 -8 45 l25 13
-23 0 c-13 0 -20 4 -17 10 8 14 28 13 43 -2z m170 0 c20 -20 14 -36 -15 -40
l-28 -4 25 -11 25 -12 -27 0 c-31 -1 -45 27 -28 59 12 23 30 26 48 8z m-2108
-58 c0 -5 -4 -10 -10 -10 -5 0 -10 5 -10 10 0 6 5 10 10 10 6 0 10 -4 10 -10z
m2420 0 c0 -5 -4 -10 -10 -10 -5 0 -10 5 -10 10 0 6 5 10 10 10 6 0 10 -4 10
-10z"/>
<path d="M6012 368 c5 -32 28 -35 28 -4 0 17 -5 26 -16 26 -10 0 -14 -7 -12
-22z"/>
<path d="M8167 377 c-3 -8 -1 -20 4 -28 8 -12 10 -12 19 1 5 8 8 19 7 24 -5
16 -24 18 -30 3z"/>
<path d="M8784 375 c-3 -8 -3 -19 1 -25 11 -18 25 -11 25 15 0 27 -17 34 -26
10z"/>
<path d="M4070 350 c0 -5 5 -10 10 -10 6 0 10 5 10 10 0 6 -4 10 -10 10 -5 0
-10 -4 -10 -10z"/>
<path d="M4450 350 c0 -5 5 -10 10 -10 6 0 10 5 10 10 0 6 -4 10 -10 10 -5 0
-10 -4 -10 -10z"/>
<path d="M4780 380 c0 -5 5 -10 10 -10 6 0 10 5 10 10 0 6 -4 10 -10 10 -5 0
-10 -4 -10 -10z"/>
<path d="M4780 320 c0 -5 7 -10 15 -10 8 0 15 5 15 10 0 6 -7 10 -15 10 -8 0
-15 -4 -15 -10z"/>
<path d="M4892 368 c5 -32 28 -35 28 -4 0 17 -5 26 -16 26 -10 0 -14 -7 -12
-22z"/>
<path d="M5380 380 c0 -5 4 -10 9 -10 6 0 13 5 16 10 3 6 -1 10 -9 10 -9 0
-16 -4 -16 -10z"/>
<path d="M5380 320 c0 -5 7 -10 15 -10 8 0 15 5 15 10 0 6 -7 10 -15 10 -8 0
-15 -4 -15 -10z"/>
<path d="M5852 368 c2 -13 8 -23 13 -23 6 0 11 10 13 23 2 15 -2 22 -13 22
-11 0 -15 -7 -13 -22z"/>
<path d="M6216 381 c-9 -14 5 -42 18 -38 15 5 14 39 -1 44 -6 2 -14 0 -17 -6z"/>
<path d="M6860 364 c0 -31 23 -28 28 4 2 15 -2 22 -12 22 -11 0 -16 -9 -16
-26z"/>
<path d="M7392 368 c5 -32 28 -35 28 -4 0 17 -5 26 -16 26 -10 0 -14 -7 -12
-22z"/>
<path d="M7788 383 c7 -3 16 -2 19 1 4 3 -2 6 -13 5 -11 0 -14 -3 -6 -6z"/>
<path d="M8046 381 c-9 -14 5 -42 18 -38 15 5 14 39 -1 44 -6 2 -14 0 -17 -6z"/>
<path d="M8355 350 c4 -6 11 -8 16 -5 14 9 11 15 -7 15 -8 0 -12 -5 -9 -10z"/>
<path d="M8528 383 c7 -3 16 -2 19 1 4 3 -2 6 -13 5 -11 0 -14 -3 -6 -6z"/>
</g>
</svg>
