<?xml version="1.0" encoding="utf-8"?>
<svg viewBox="25.297 3.875 79.096 42.069" width="79.096px" height="42.069px" xmlns="http://www.w3.org/2000/svg">
  <g>
    <g transform="matrix(0.630622, 0, 0, 0.495223, 46.375393, 11.773326)" style="">
      <g transform="matrix(0.089844, 0, 0, 0.089844, 0, 0)">
        <g transform="matrix(1 0 0 1 0 0)"/>
        <path transform="matrix(1 0 0 1 0 0)" d="M0 0L1024 0L1024 768L0 768L0 0z" stroke="none" fill="none"/>
        <g transform="matrix(1 0 0 1 0 0)"/>
        <path transform="matrix(1 0 0 1 0 0)" d="M287.439 311.855C 258.15 311.855 227.76 302.858 194.797 284.466C 165.249 267.979 133.65799 252.242 102.847 248.755C 69.489 244.979 40.079 256.062 12.936996 282.635C 9.930996 285.57602 5.1129966 285.52402 2.1729965 282.521C -0.76800346 279.518 -0.7170036 274.698 2.2869966 271.757C 32.908997 241.77899 66.357994 229.30699 104.558 233.629C 138.039 237.41699 171.27899 253.912 202.21399 271.173C 235.39798 289.689 265.447 297.959 294.089 296.459C 327.77 294.69202 359.87 278.67 389.49698 248.837C 392.45898 245.85301 397.279 245.83801 400.261 248.8C 403.24298 251.762 403.25998 256.581 400.29797 259.565C 367.92398 292.163 332.45898 309.691 294.886 311.662C 292.412 311.78998 289.92798 311.85498 287.439 311.85498L287.439 311.85498L287.439 311.855z" stroke="#FFFFFF" stroke-width="1" fill="#FFFFFF" fill-rule="nonzero"/>
        <g transform="matrix(1 0 0 1 0 0)"/>
        <path transform="matrix(1 0 0 1 0 0)" d="M246.311 231.146C 242.237 231.146 238.09601 230.914 233.879 230.44899C 207.483 227.54399 181.282 216.00899 155.944 204.85399C 106.328 183.00899 59.459 162.374 12.641006 203.59999C 9.485006 206.379 4.6770062 206.07199 1.8990068 202.91798C -0.8789933 199.76299 -0.5739932 194.95299 2.582007 192.17499C 26.918007 170.74599 53.58701 161.96199 84.14501 165.32599C 110.541016 168.23099 136.742 179.76599 162.08002 190.92099C 211.69702 212.767 258.565 233.4 305.38202 192.17499C 308.536 189.39699 313.346 189.70198 316.12402 192.857C 318.90204 196.01201 318.59702 200.82199 315.441 203.59999C 294.465 222.06999 271.745 231.14499 246.311 231.146z" stroke="#FFFFFF" stroke-width="1" fill="#FFFFFF" fill-rule="nonzero"/>
        <g transform="matrix(1 0 0 1 0 0)"/>
        <path transform="matrix(1 0 0 1 0 0)" d="M244.647 163.228C 221.77 163.228 199.919 154.231 182.86 145.989C 179.075 144.16 177.49 139.609 179.319 135.824C 181.147 132.04001 185.695 130.45001 189.484 132.282C 223.056 148.505 240.915 148.953 252.72699 147.52899C 270.797 145.351 296.681 132.161 309.059 112.00499C 316.272 100.25899 317.681 88.13099 313.246 75.95799C 309.815 66.54099 299.904 58.803993 289.145 57.145992C 280.12698 55.754993 270.77798 58.777992 265.305 64.843994C 259.75598 70.991 258.43298 80.57199 262.22598 87.131996C 264.18997 90.52699 268.107 93.274994 272.44897 94.30299C 274.64096 94.82299 278.86398 95.33399 282.51898 92.92999C 286.03098 90.621994 290.75198 91.59599 293.06 95.10899C 295.369 98.620995 294.394 103.340996 290.882 105.65099C 284.638 109.756996 276.845 110.98599 268.942 109.117C 260.53598 107.127 253.09898 101.757996 249.04799 94.753C 241.97699 82.526 244.06198 65.658 254.00398 54.643997C 262.95798 44.725998 277.31097 39.918 291.464 42.100998C 307.718 44.607 322.219 56.118996 327.54898 70.748C 333.56897 87.270004 331.65997 104.292 322.03098 119.972C 306.99298 144.459 276.69998 159.97299 254.54797 162.643C 251.23598 163.043 247.92998 163.22801 244.64697 163.22801L244.64697 163.22801L244.647 163.228z" stroke="#FFFFFF" stroke-width="1" fill="#FFFFFF" fill-rule="nonzero"/>
        <g transform="matrix(1 0 0 1 0 0)"/>
        <path transform="matrix(1 0 0 1 0 0)" d="M52.157 399.897C 49.911003 399.897 47.65 399.727 45.391003 399.379C 29.136003 396.872 14.635002 385.36 9.307003 370.732C 3.287003 354.211 5.195003 337.189 14.824003 321.508C 29.862003 297.021 60.154007 281.507 82.30701 278.837C 108.70801 275.651 134.488 286.065 153.99501 295.491C 157.78001 297.32 159.36601 301.871 157.53702 305.656C 155.70802 309.439 151.15901 311.028 147.37202 309.198C 113.79503 292.974 95.93402 292.526 84.12802 293.951C 66.05802 296.129 40.174023 309.319 27.79602 329.47498C 20.583021 341.22098 19.17502 353.34897 23.61002 365.52197C 27.04002 374.93896 36.95102 382.675 47.71102 384.33398C 56.717022 385.72598 66.07602 382.702 71.55002 376.636C 77.099014 370.49 78.42302 360.909 74.62902 354.348C 72.66502 350.953 68.748024 348.205 64.40602 347.177C 62.21402 346.659 57.99202 346.146 54.33602 348.55C 50.82502 350.858 46.10402 349.883 43.79502 346.371C 41.486023 342.859 42.46102 338.139 45.973022 335.829C 52.217022 331.72302 60.00902 330.493 67.913025 332.363C 76.31902 334.353 83.75603 339.72202 87.80702 346.72702C 94.87802 358.95502 92.79402 375.82303 82.85002 386.83603C 75.32502 395.17102 63.984024 399.89603 52.15702 399.89703L52.15702 399.89703L52.157 399.897z" stroke="#FFFFFF" stroke-width="1" fill="#FFFFFF" fill-rule="nonzero"/>
        <g transform="matrix(1 0 0 1 0 0)"/>
        <path transform="matrix(1 0 0 1 0 0)" d="M507.211 43.777C 505.987 40.298 503.256 37.567 499.776 36.342C 470.116 25.903 435.793 32.524 412.073 56.242996C 388.354 79.962 381.733 114.284996 392.172 143.946C 393.396 147.425 396.12698 150.156 399.607 151.381C 429.268 161.819 463.59 155.19899 487.31 131.48C 511.029 107.759995 517.649 73.437 507.211 43.776993L507.211 43.776993L507.211 43.777z" stroke="#FFFFFF" stroke-width="1" fill="#FFFFFF" fill-rule="nonzero"/>
        <g transform="matrix(1 0 0 1 0 0)"/>
        <path transform="matrix(1 0 0 1 0 0)" d="M507.211 43.777C 506.18 40.848 504.074 38.462 501.359 37.046C 505.772 63.069 497.952 90.757 477.866 110.843C 454.147 134.562 419.824 141.183 390.164 130.744C 389.614 130.55 389.091 130.307 388.581 130.041C 389.379 134.749 390.574 139.403 392.173 143.947C 393.397 147.42601 396.128 150.15701 399.608 151.38101C 429.269 161.82 463.591 155.199 487.31 131.48001C 511.029 107.76102 517.649 73.43701 507.211 43.777008L507.211 43.777008L507.211 43.777z" stroke="#FFFFFF" stroke-width="1" fill="#FFFFFF" fill-rule="nonzero"/>
        <g transform="matrix(1 0 0 1 0 0)"/>
        <path transform="matrix(1 0 0 1 0 0)" d="M508.042 46.278L402.11 152.20999L375.67297 178.657C 374.18097 180.13899 372.23297 180.89 370.28397 180.89C 368.33597 180.89 366.38696 180.13899 364.90497 178.657C 361.93097 175.683 361.93097 170.86299 364.90497 167.88899L364.90497 167.88899L497.28397 35.509995C 498.11597 35.773994 498.94897 36.047993 499.78098 36.341995C 503.25198 37.569996 505.98196 40.299995 507.20996 43.780994C 507.50397 44.613995 507.77795 45.445995 508.04196 46.277996L508.04196 46.277996L508.042 46.278z" stroke="#FFFFFF" stroke-width="1" fill="#FFFFFF" fill-rule="nonzero"/>
        <g transform="matrix(1 0 0 1 0 0)"/>
        <path transform="matrix(1 0 0 1 0 0)" d="M508.042 46.278L502.541 51.779C 502.58197 46.847 502.18597 41.915 501.36398 37.043C 501.53598 37.134 501.69897 37.225998 501.861 37.316998C 502.693 37.803997 503.444 38.372997 504.134 39.022C 504.408 39.286 504.672 39.559998 504.915 39.843998C 505.03702 39.985996 505.159 40.137997 505.28 40.28C 505.513 40.573997 505.737 40.878998 505.94 41.204C 506.458 41.996 506.884 42.868 507.209 43.781998C 507.50403 44.614 507.778 45.446 508.04202 46.277996L508.04202 46.277996L508.042 46.278z" stroke="#FFFFFF" stroke-width="1" fill="#FFFFFF" fill-rule="nonzero"/>
        <g transform="matrix(1 0 0 1 0 0)"/>
        <path transform="matrix(1 0 0 1 0 0)" d="M418.795 135.525L375.673 178.657C 374.181 180.13899 372.233 180.89 370.284 180.89C 368.336 180.89 366.387 180.13899 364.905 178.657C 361.931 175.683 361.931 170.86299 364.905 167.88899L364.905 167.88899L399.39 133.40399C 405.764 134.866 412.27902 135.57599 418.795 135.525z" stroke="#FFFFFF" stroke-width="1" fill="#FFFFFF" fill-rule="nonzero"/>
        <g transform="matrix(1 0 0 1 0 0)"/>
        <path transform="matrix(1 0 0 1 0 0)" d="M508.042 46.278L502.541 51.779C 502.58197 46.847 502.18597 41.915 501.36398 37.043C 502.637 37.717 503.79797 38.538998 504.916 39.843998C 506.69598 41.915997 507.202 43.629997 508.042 46.278z" stroke="#FFFFFF" stroke-width="1" fill="#FFFFFF" fill-rule="nonzero"/>
        <g transform="matrix(1 0 0 1 0 0)"/>
        <path transform="matrix(1 0 0 1 0 0)" d="M358.484 475.658C 361.963 474.434 364.694 471.703 365.919 468.224C 376.358 438.564 369.737 404.241 346.018 380.521C 322.299 356.802 287.976 350.181 258.315 360.62C 254.836 361.844 252.105 364.57498 250.88 368.055C 240.442 397.716 247.06201 432.038 270.781 455.758C 294.5 479.47598 328.823 486.096 358.484 475.658z" stroke="#FFFFFF" stroke-width="1" fill="#FFFFFF" fill-rule="nonzero"/>
        <g transform="matrix(1 0 0 1 0 0)"/>
        <path transform="matrix(1 0 0 1 0 0)" d="M358.484 475.658C 361.413 474.62698 363.799 472.521 365.215 469.806C 339.192 474.219 311.504 466.399 291.418 446.313C 267.699 422.594 261.078 388.271 271.517 358.611C 271.711 358.061 271.954 357.538 272.22 357.02798C 267.512 357.826 262.858 359.021 258.314 360.62C 254.83499 361.844 252.10399 364.57498 250.87999 368.055C 240.441 397.716 247.062 432.038 270.78098 455.757C 294.49994 479.47598 328.82297 486.09598 358.48398 475.658L358.48398 475.658L358.484 475.658z" stroke="#FFFFFF" stroke-width="1" fill="#FFFFFF" fill-rule="nonzero"/>
        <g transform="matrix(1 0 0 1 0 0)"/>
        <path transform="matrix(1 0 0 1 0 0)" d="M366.742 465.732C 366.488 466.564 366.214 467.397 365.92 468.219C 364.69202 471.69998 361.962 474.43 358.48102 475.658C 357.64902 475.952 356.81702 476.22598 355.984 476.49L355.984 476.49L250.05301 370.55798L223.606 344.12097C 220.632 341.14697 220.632 336.32697 223.606 333.35297C 226.57901 330.37997 231.40001 330.37997 234.37401 333.35297L234.37401 333.35297L260.811 359.78998L366.742 465.732z" stroke="#FFFFFF" stroke-width="1" fill="#FFFFFF" fill-rule="nonzero"/>
        <g transform="matrix(1 0 0 1 0 0)"/>
        <path transform="matrix(1 0 0 1 0 0)" d="M268.848 367.838C 267.397 374.22202 266.686 380.72702 266.737 387.242L266.737 387.242L223.605 344.12C 220.631 341.146 220.631 336.326 223.605 333.352C 226.578 330.379 231.399 330.379 234.373 333.352L234.373 333.352L268.848 367.838z" stroke="#FFFFFF" stroke-width="1" fill="#FFFFFF" fill-rule="nonzero"/>
        <g transform="matrix(1 0 0 1 0 0)"/>
        <path transform="matrix(1 0 0 1 0 0)" d="M365.22 469.802C 364.717 470.752 364.243 471.518 363.241 472.583C 361.016 474.893 358.98 475.54102 355.985 476.49002L355.985 476.49002L350.485 470.989C 355.417 471.03 360.339 470.62402 365.21 469.802L365.21 469.802L365.22 469.802z" stroke="#FFFFFF" stroke-width="1" fill="#FFFFFF" fill-rule="nonzero"/>
      </g>
    </g>
    <text x="25.309" y="17.681" style="white-space: pre; fill: rgb(255, 255, 255); stroke: rgb(255, 255, 255); font-size: 15px;">Fair </text>
    <text x="66.538" y="41.284" style="white-space: pre; fill: rgb(255, 255, 255); stroke: rgb(255, 255, 255); font-size: 15px;">Air </text>
  </g>
</svg>